<svg width="256" height="256" viewBox="0 0 256 256" fill="none" xmlns="http://www.w3.org/2000/svg">
<g clip-path="url(#clip0_855_42112)">
<g filter="url(#filter0_b_855_42112)">
<path d="M0 102.195C0 18.0375 18.0375 0 102.195 0H153.805C237.963 0 256 18.0375 256 102.195V153.805C256 237.963 237.963 256 153.805 256H102.195C18.0375 256 0 237.963 0 153.805V102.195Z" fill="white"/>
<path d="M0 102.195C0 18.0375 18.0375 0 102.195 0H153.805C237.963 0 256 18.0375 256 102.195V153.805C256 237.963 237.963 256 153.805 256H102.195C18.0375 256 0 237.963 0 153.805V102.195Z" fill="url(#paint0_linear_855_42112)" fill-opacity="0.7"/>
<path d="M0 102.195C0 18.0375 18.0375 0 102.195 0H153.805C237.963 0 256 18.0375 256 102.195V153.805C256 237.963 237.963 256 153.805 256H102.195C18.0375 256 0 237.963 0 153.805V102.195Z" fill="url(#paint1_angular_855_42112)" fill-opacity="0.2"/>
<path d="M1.5 102.195C1.5 81.19 2.62746 64.413 5.59759 51.0486C8.56393 37.7012 13.3483 27.85 20.5991 20.5991C27.85 13.3483 37.7012 8.56393 51.0486 5.59759C64.413 2.62746 81.19 1.5 102.195 1.5H153.805C174.81 1.5 191.587 2.62746 204.951 5.59759C218.299 8.56393 228.15 13.3483 235.401 20.5991C242.652 27.85 247.436 37.7012 250.402 51.0486C253.373 64.413 254.5 81.19 254.5 102.195V153.805C254.5 174.81 253.373 191.587 250.402 204.951C247.436 218.299 242.652 228.15 235.401 235.401C228.15 242.652 218.299 247.436 204.951 250.402C191.587 253.373 174.81 254.5 153.805 254.5H102.195C81.19 254.5 64.413 253.373 51.0486 250.402C37.7012 247.436 27.85 242.652 20.5991 235.401C13.3483 228.15 8.56393 218.299 5.59759 204.951C2.62746 191.587 1.5 174.81 1.5 153.805V102.195Z" stroke="url(#paint2_linear_855_42112)" stroke-opacity="0.6" stroke-width="3"/>
</g>
<path d="M63.3776 123.264C66.6435 123.245 69.6558 125.022 71.2189 127.89L74.4419 133.802C75.2752 135.33 77.4638 135.347 78.3208 133.832L81.7293 127.803C83.359 124.92 86.4068 123.13 89.7185 123.11L91.516 123.099C95.8562 123.072 99.8134 125.58 101.642 129.517L156.798 248.238C160.213 255.59 154.845 264.002 146.739 264.002L103.87 259.001C103.87 259.001 65.5 254.212 63.5 254C61.5 253.788 49 251.5 49 251.5L38.5 248.238C15 239 7 224.5 3.5 199L36.9073 128.726C38.412 125.477 41.6594 123.389 45.2403 123.369L63.3776 123.264Z" fill="url(#paint3_linear_855_42112)"/>
<path d="M62.8776 123.666C66.1435 123.646 69.1559 125.423 70.7189 128.291L73.9419 134.203C74.7752 135.731 76.9639 135.748 77.8208 134.233L81.2294 128.204C82.859 125.321 85.9068 123.531 89.2186 123.511L91.016 123.5C95.3563 123.473 99.3135 125.981 101.142 129.918L156.298 248.639C159.713 255.991 154.345 264.403 146.239 264.403L63.5001 253.901C51.5 251 9.5 251.5 3.5 199.401L36.4073 129.127C37.912 125.878 41.1594 123.79 44.7403 123.77L62.8776 123.666Z" fill="url(#paint4_linear_855_42112)"/>
<path d="M63.3775 123.264C66.6435 123.245 69.6557 125.022 71.2188 127.89L74.4418 133.802C75.2751 135.33 77.4638 135.347 78.3207 133.832L81.7293 127.803C83.3589 124.92 86.4067 123.13 89.7185 123.11L91.5159 123.099C95.8562 123.072 99.8134 125.58 101.642 129.517L156.798 248.238C160.213 255.59 154.845 264.002 146.739 264.002L48 250.5C30 249 10 235 3 200L36.9072 128.726C38.4119 125.477 41.6593 123.389 45.2402 123.369L63.3775 123.264Z" fill="url(#paint5_linear_855_42112)"/>
<path d="M80.8488 171L87.3192 194.358C89.0937 200.763 94.9238 205.197 101.571 205.197H102.105C108.114 205.197 113.526 208.835 115.796 214.398L136.036 264.002H146.74C154.846 264.002 160.213 255.59 156.798 248.238L101.642 129.517C99.8135 125.58 95.857 123.072 91.5167 123.099L89.7193 123.11C86.4075 123.13 83.3597 124.92 81.7294 127.803L80.8488 129.361V171Z" fill="url(#paint6_linear_855_42112)"/>
<path d="M80.8488 171L87.3192 194.358C89.0937 200.763 94.9238 205.197 101.571 205.197H102.105C108.114 205.197 113.526 208.835 115.796 214.398L136.036 264.002H146.74C154.846 264.002 160.213 255.59 156.798 248.238L101.642 129.517C99.8135 125.58 95.857 123.072 91.5167 123.099L89.7193 123.11C86.4075 123.13 83.3597 124.92 81.7294 127.803L80.8488 129.361V171Z" fill="url(#paint7_linear_855_42112)"/>
<g filter="url(#filter1_f_855_42112)">
<path d="M110.136 164.32C110.136 161.986 109.584 159.686 108.524 157.606L98.5935 138.12C96.8367 134.673 93.0362 132.477 88.8675 132.5L87.141 132.51C83.9601 132.527 81.0329 134.095 79.4676 136.619L76.1935 141.898C75.3706 143.225 73.2685 143.21 72.4685 141.872L69.3726 136.695C67.8709 134.185 64.9777 132.628 61.8412 132.645L44.4203 132.736C40.9806 132.754 37.8619 134.582 36.4164 137.427L26.6941 156.559C25.2323 159.436 24.47 162.618 24.47 165.845C24.47 169.421 27.6501 172.32 31.5718 172.32H31.7937C35.7162 172.32 38.8955 175.218 38.8955 178.794V229.476C38.8955 233.051 42.0757 235.95 45.9974 235.95C49.9199 235.95 53.0993 233.051 53.0993 229.476V181.89C53.0993 178.289 56.3016 175.369 60.2522 175.369C64.202 175.369 67.4051 178.289 67.4051 181.89V191.237C67.4051 194.813 70.5845 197.711 74.5062 197.711C78.4287 197.711 81.6081 194.813 81.6081 191.237V174.714C81.6081 171.366 84.5857 168.652 88.2582 168.652C91.5766 168.652 95.7402 170.882 96.1978 173.877L96.3738 178.693C96.8966 182.115 100.106 184.662 103.895 184.662C108.09 184.662 110.136 181.561 110.136 177.738V164.32Z" fill="#2E1C46"/>
</g>
<g filter="url(#filter2_f_855_42112)">
<path d="M106.988 162.303L146.905 248.064" stroke="#715594" stroke-width="0.5" stroke-linecap="round"/>
</g>
<path d="M40.7602 86.6632C39.7391 86.6632 38.9117 87.4908 38.9117 88.5117V114.593C38.9117 115.614 39.7391 116.441 40.7602 116.441H43.4457C45.4879 116.441 47.1427 118.096 47.1427 120.138V153.093C47.1427 154.114 47.9708 154.942 48.9912 154.942H89.7451C90.7654 154.942 91.5936 154.114 91.5936 153.093V120.138C91.5936 118.096 93.2483 116.441 95.2905 116.441H101.76C102.781 116.441 103.609 115.614 103.609 114.593V88.5117C103.609 87.4908 102.781 86.6632 101.76 86.6632H40.7602Z" fill="url(#paint8_radial_855_42112)"/>
<path d="M40.7602 86.6632C39.7391 86.6632 38.9117 87.4908 38.9117 88.5117V114.593C38.9117 115.614 39.7391 116.441 40.7602 116.441H43.4457C45.4879 116.441 47.1427 118.096 47.1427 120.138V153.093C47.1427 154.114 47.9708 154.942 48.9912 154.942H89.7451C90.7654 154.942 91.5936 154.114 91.5936 153.093V120.138C91.5936 118.096 93.2483 116.441 95.2905 116.441H101.76C102.781 116.441 103.609 115.614 103.609 114.593V88.5117C103.609 87.4908 102.781 86.6632 101.76 86.6632H40.7602Z" fill="url(#paint9_radial_855_42112)"/>
<g filter="url(#filter3_d_855_42112)">
<path d="M113.659 158.651C113.659 156.499 113.19 154.372 112.283 152.42L101.642 129.517C99.8135 125.58 95.857 123.072 91.5167 123.099L89.7193 123.11C86.4075 123.13 83.3597 124.92 81.7294 127.803L78.3208 133.832C77.4638 135.347 75.2759 135.33 74.4426 133.802L71.2196 127.89C69.6565 125.022 66.6443 123.245 63.3784 123.264L45.2403 123.369C41.6594 123.389 38.4127 125.477 36.9073 128.726L26.5248 151.138C25.1717 154.06 24.47 157.242 24.47 160.462V161.181C24.47 165.264 27.7802 168.575 31.8639 168.575H32.0953C36.179 168.575 39.4893 171.885 39.4893 175.968V233.849C39.4893 237.933 42.7996 241.243 46.8832 241.243C50.9669 241.243 54.2772 237.933 54.2772 233.849V182.375C54.2772 178.263 57.6111 174.929 61.7236 174.929C65.8368 174.929 69.1708 178.263 69.1708 182.375V190.179C69.1708 194.263 72.481 197.573 76.5647 197.573C80.6484 197.573 83.9586 194.263 83.9586 190.179V175.498C83.9586 171.674 87.0582 168.575 90.8823 168.575C94.3368 168.575 97.2626 171.121 97.7395 174.542L97.9221 175.854C98.4663 179.761 101.808 182.669 105.753 182.669C110.12 182.669 113.659 179.129 113.659 174.763V158.651Z" fill="url(#paint10_linear_855_42112)"/>
</g>
<path d="M113.659 158.651C113.659 156.499 113.19 154.372 112.283 152.42L101.642 129.517C99.8135 125.58 95.857 123.072 91.5167 123.099L89.7193 123.11C86.4075 123.13 83.3597 124.92 81.7294 127.803L78.3208 133.832C77.4638 135.347 75.2759 135.33 74.4426 133.802L71.2196 127.89C69.6565 125.022 66.6443 123.245 63.3784 123.264L45.2403 123.369C41.6594 123.389 38.4127 125.477 36.9073 128.726L26.5248 151.138C25.1717 154.06 24.47 157.242 24.47 160.462V161.181C24.47 165.264 27.7802 168.575 31.8639 168.575H32.0953C36.179 168.575 39.4893 171.885 39.4893 175.968V233.849C39.4893 237.933 42.7996 241.243 46.8832 241.243C50.9669 241.243 54.2772 237.933 54.2772 233.849V182.375C54.2772 178.263 57.6111 174.929 61.7236 174.929C65.8368 174.929 69.1708 178.263 69.1708 182.375V190.179C69.1708 194.263 72.481 197.573 76.5647 197.573C80.6484 197.573 83.9586 194.263 83.9586 190.179V175.498C83.9586 171.674 87.0582 168.575 90.8823 168.575C94.3368 168.575 97.2626 171.121 97.7395 174.542L97.9221 175.854C98.4663 179.761 101.808 182.669 105.753 182.669C110.12 182.669 113.659 179.129 113.659 174.763V158.651Z" fill="url(#paint11_radial_855_42112)"/>
<path d="M113.659 158.651C113.659 156.499 113.19 154.372 112.283 152.42L101.642 129.517C99.8135 125.58 95.857 123.072 91.5167 123.099L89.7193 123.11C86.4075 123.13 83.3597 124.92 81.7294 127.803L78.3208 133.832C77.4638 135.347 75.2759 135.33 74.4426 133.802L71.2196 127.89C69.6565 125.022 66.6443 123.245 63.3784 123.264L45.2403 123.369C41.6594 123.389 38.4127 125.477 36.9073 128.726L26.5248 151.138C25.1717 154.06 24.47 157.242 24.47 160.462V161.181C24.47 165.264 27.7802 168.575 31.8639 168.575H32.0953C36.179 168.575 39.4893 171.885 39.4893 175.968V233.849C39.4893 237.933 42.7996 241.243 46.8832 241.243C50.9669 241.243 54.2772 237.933 54.2772 233.849V182.375C54.2772 178.263 57.6111 174.929 61.7236 174.929C65.8368 174.929 69.1708 178.263 69.1708 182.375V190.179C69.1708 194.263 72.481 197.573 76.5647 197.573C80.6484 197.573 83.9586 194.263 83.9586 190.179V175.498C83.9586 171.674 87.0582 168.575 90.8823 168.575C94.3368 168.575 97.2626 171.121 97.7395 174.542L97.9221 175.854C98.4663 179.761 101.808 182.669 105.753 182.669C110.12 182.669 113.659 179.129 113.659 174.763V158.651Z" fill="url(#paint12_radial_855_42112)"/>
<path d="M113.659 158.651C113.659 156.499 113.19 154.372 112.283 152.42L101.642 129.517C99.8135 125.58 95.857 123.072 91.5167 123.099L89.7193 123.11C86.4075 123.13 83.3597 124.92 81.7294 127.803L78.3208 133.832C77.4638 135.347 75.2759 135.33 74.4426 133.802L71.2196 127.89C69.6565 125.022 66.6443 123.245 63.3784 123.264L45.2403 123.369C41.6594 123.389 38.4127 125.477 36.9073 128.726L26.5248 151.138C25.1717 154.06 24.47 157.242 24.47 160.462V161.181C24.47 165.264 27.7802 168.575 31.8639 168.575H32.0953C36.179 168.575 39.4893 171.885 39.4893 175.968V233.849C39.4893 237.933 42.7996 241.243 46.8832 241.243C50.9669 241.243 54.2772 237.933 54.2772 233.849V182.375C54.2772 178.263 57.6111 174.929 61.7236 174.929C65.8368 174.929 69.1708 178.263 69.1708 182.375V190.179C69.1708 194.263 72.481 197.573 76.5647 197.573C80.6484 197.573 83.9586 194.263 83.9586 190.179V175.498C83.9586 171.674 87.0582 168.575 90.8823 168.575C94.3368 168.575 97.2626 171.121 97.7395 174.542L97.9221 175.854C98.4663 179.761 101.808 182.669 105.753 182.669C110.12 182.669 113.659 179.129 113.659 174.763V158.651Z" fill="url(#paint13_radial_855_42112)"/>
<path d="M113.659 158.651C113.659 156.499 113.19 154.372 112.283 152.42L101.642 129.517C99.8135 125.58 95.857 123.072 91.5167 123.099L89.7193 123.11C86.4075 123.13 83.3597 124.92 81.7294 127.803L78.3208 133.832C77.4638 135.347 75.2759 135.33 74.4426 133.802L71.2196 127.89C69.6565 125.022 66.6443 123.245 63.3784 123.264L45.2403 123.369C41.6594 123.389 38.4127 125.477 36.9073 128.726L26.5248 151.138C25.1717 154.06 24.47 157.242 24.47 160.462V161.181C24.47 165.264 27.7802 168.575 31.8639 168.575H32.0953C36.179 168.575 39.4893 171.885 39.4893 175.968V233.849C39.4893 237.933 42.7996 241.243 46.8832 241.243C50.9669 241.243 54.2772 237.933 54.2772 233.849V182.375C54.2772 178.263 57.6111 174.929 61.7236 174.929C65.8368 174.929 69.1708 178.263 69.1708 182.375V190.179C69.1708 194.263 72.481 197.573 76.5647 197.573C80.6484 197.573 83.9586 194.263 83.9586 190.179V175.498C83.9586 171.674 87.0582 168.575 90.8823 168.575C94.3368 168.575 97.2626 171.121 97.7395 174.542L97.9221 175.854C98.4663 179.761 101.808 182.669 105.753 182.669C110.12 182.669 113.659 179.129 113.659 174.763V158.651Z" fill="url(#paint14_radial_855_42112)"/>
<path d="M113.659 158.651C113.659 156.499 113.19 154.372 112.283 152.42L101.642 129.517C99.8135 125.58 95.857 123.072 91.5167 123.099L89.7193 123.11C86.4075 123.13 83.3597 124.92 81.7294 127.803L78.3208 133.832C77.4638 135.347 75.2759 135.33 74.4426 133.802L71.2196 127.89C69.6565 125.022 66.6443 123.245 63.3784 123.264L45.2403 123.369C41.6594 123.389 38.4127 125.477 36.9073 128.726L26.5248 151.138C25.1717 154.06 24.47 157.242 24.47 160.462V161.181C24.47 165.264 27.7802 168.575 31.8639 168.575H32.0953C36.179 168.575 39.4893 171.885 39.4893 175.968V233.849C39.4893 237.933 42.7996 241.243 46.8832 241.243C50.9669 241.243 54.2772 237.933 54.2772 233.849V182.375C54.2772 178.263 57.6111 174.929 61.7236 174.929C65.8368 174.929 69.1708 178.263 69.1708 182.375V190.179C69.1708 194.263 72.481 197.573 76.5647 197.573C80.6484 197.573 83.9586 194.263 83.9586 190.179V175.498C83.9586 171.674 87.0582 168.575 90.8823 168.575C94.3368 168.575 97.2626 171.121 97.7395 174.542L97.9221 175.854C98.4663 179.761 101.808 182.669 105.753 182.669C110.12 182.669 113.659 179.129 113.659 174.763V158.651Z" fill="url(#paint15_radial_855_42112)"/>
<path d="M76.4012 86.6632C84.345 86.6632 90.7847 80.2235 90.7847 72.2797C90.7847 64.3359 84.345 57.8962 76.4012 57.8962C68.4574 57.8962 62.0177 64.3359 62.0177 72.2797C62.0177 80.2235 68.4574 86.6632 76.4012 86.6632Z" fill="url(#paint16_radial_855_42112)"/>
<path d="M76.4012 86.6632C84.345 86.6632 90.7847 80.2235 90.7847 72.2797C90.7847 64.3359 84.345 57.8962 76.4012 57.8962C68.4574 57.8962 62.0177 64.3359 62.0177 72.2797C62.0177 80.2235 68.4574 86.6632 76.4012 86.6632Z" fill="url(#paint17_radial_855_42112)"/>
<path d="M107.278 87.0097C106.245 87.0097 105.424 86.1582 105.309 85.1311C104.497 77.8866 98.3177 72.1641 90.8136 72.1641C82.7579 72.1641 76.2275 78.6944 76.2275 86.7499C76.2275 94.8053 82.7579 101.336 90.8136 101.336C91.5108 101.336 92.197 101.287 92.8683 101.192C94.1135 101.016 95.3483 101.909 95.3483 103.166V114.593C95.3483 115.613 96.1756 116.441 97.1967 116.441H113.038C121.166 116.441 127.754 109.853 127.754 101.725C127.754 93.5982 121.166 87.0097 113.038 87.0097H107.278Z" fill="url(#paint18_linear_855_42112)"/>
<path d="M107.278 87.0097C106.245 87.0097 105.424 86.1582 105.309 85.1311C104.497 77.8866 98.3177 72.1641 90.8136 72.1641C82.7579 72.1641 76.2275 78.6944 76.2275 86.7499C76.2275 94.8053 82.7579 101.336 90.8136 101.336C91.5108 101.336 92.197 101.287 92.8683 101.192C94.1135 101.016 95.3483 101.909 95.3483 103.166V114.593C95.3483 115.613 96.1756 116.441 97.1967 116.441H113.038C121.166 116.441 127.754 109.853 127.754 101.725C127.754 93.5982 121.166 87.0097 113.038 87.0097H107.278Z" fill="url(#paint19_radial_855_42112)"/>
<path d="M107.278 87.0097C106.245 87.0097 105.424 86.1582 105.309 85.1311C104.497 77.8866 98.3177 72.1641 90.8136 72.1641C82.7579 72.1641 76.2275 78.6944 76.2275 86.7499C76.2275 94.8053 82.7579 101.336 90.8136 101.336C91.5108 101.336 92.197 101.287 92.8683 101.192C94.1135 101.016 95.3483 101.909 95.3483 103.166V114.593C95.3483 115.613 96.1756 116.441 97.1967 116.441H113.038C121.166 116.441 127.754 109.853 127.754 101.725C127.754 93.5982 121.166 87.0097 113.038 87.0097H107.278Z" fill="url(#paint20_radial_855_42112)"/>
<path d="M107.278 87.0097C106.245 87.0097 105.424 86.1582 105.309 85.1311C104.497 77.8866 98.3177 72.1641 90.8136 72.1641C82.7579 72.1641 76.2275 78.6944 76.2275 86.7499C76.2275 94.8053 82.7579 101.336 90.8136 101.336C91.5108 101.336 92.197 101.287 92.8683 101.192C94.1135 101.016 95.3483 101.909 95.3483 103.166V114.593C95.3483 115.613 96.1756 116.441 97.1967 116.441H113.038C121.166 116.441 127.754 109.853 127.754 101.725C127.754 93.5982 121.166 87.0097 113.038 87.0097H107.278Z" fill="url(#paint21_linear_855_42112)"/>
<path d="M90.8135 101.336C98.869 101.336 105.399 94.8053 105.399 86.7499C105.399 78.6944 98.869 72.1641 90.8135 72.1641C82.758 72.1641 76.2278 78.6944 76.2278 86.7499C76.2278 94.8053 82.758 101.336 90.8135 101.336Z" fill="url(#paint22_radial_855_42112)"/>
<path d="M38.361 87.0097C39.3946 87.0097 40.2146 86.1577 40.3315 85.1308C41.1477 77.9603 47.3246 72.684 54.8258 72.684C62.8815 72.684 68.4292 79.327 68.4292 86.7498C68.4292 94.8053 62.8815 101.335 54.8258 101.335C54.1285 101.335 53.4424 101.287 52.771 101.192C51.5259 101.016 50.2911 101.909 50.2911 103.166V114.593C50.2911 115.613 49.4637 116.441 48.4426 116.441H32.6003C24.4737 116.441 17.885 109.853 17.885 101.725C17.885 93.5982 24.4737 87.0097 32.6003 87.0097H38.361Z" fill="url(#paint23_radial_855_42112)"/>
<path d="M38.361 87.0097C39.3946 87.0097 40.2146 86.1577 40.3315 85.1308C41.1477 77.9603 47.3246 72.684 54.8258 72.684C62.8815 72.684 68.4292 79.327 68.4292 86.7498C68.4292 94.8053 62.8815 101.335 54.8258 101.335C54.1285 101.335 53.4424 101.287 52.771 101.192C51.5259 101.016 50.2911 101.909 50.2911 103.166V114.593C50.2911 115.613 49.4637 116.441 48.4426 116.441H32.6003C24.4737 116.441 17.885 109.853 17.885 101.725C17.885 93.5982 24.4737 87.0097 32.6003 87.0097H38.361Z" fill="url(#paint24_radial_855_42112)"/>
<path d="M38.361 87.0097C39.3946 87.0097 40.2146 86.1577 40.3315 85.1308C41.1477 77.9603 47.3246 72.684 54.8258 72.684C62.8815 72.684 68.4292 79.327 68.4292 86.7498C68.4292 94.8053 62.8815 101.335 54.8258 101.335C54.1285 101.335 53.4424 101.287 52.771 101.192C51.5259 101.016 50.2911 101.909 50.2911 103.166V114.593C50.2911 115.613 49.4637 116.441 48.4426 116.441H32.6003C24.4737 116.441 17.885 109.853 17.885 101.725C17.885 93.5982 24.4737 87.0097 32.6003 87.0097H38.361Z" fill="url(#paint25_linear_855_42112)"/>
<path d="M54.5655 101.348C62.4933 101.348 68.9202 94.9214 68.9202 86.9935C68.9202 79.0657 62.4933 72.6389 54.5655 72.6389C46.6376 72.6389 40.2108 79.0657 40.2108 86.9935C40.2108 94.9214 46.6376 101.348 54.5655 101.348Z" fill="url(#paint26_radial_855_42112)"/>
<path d="M54.5655 101.348C62.4933 101.348 68.9202 94.9214 68.9202 86.9935C68.9202 79.0657 62.4933 72.6389 54.5655 72.6389C46.6376 72.6389 40.2108 79.0657 40.2108 86.9935C40.2108 94.9214 46.6376 101.348 54.5655 101.348Z" fill="url(#paint27_radial_855_42112)"/>
<path d="M54.5655 101.348C62.4933 101.348 68.9202 94.9214 68.9202 86.9935C68.9202 79.0657 62.4933 72.6389 54.5655 72.6389C46.6376 72.6389 40.2108 79.0657 40.2108 86.9935C40.2108 94.9214 46.6376 101.348 54.5655 101.348Z" fill="url(#paint28_radial_855_42112)"/>
<path d="M87.9565 114.384C86.0799 113.256 83.5438 113.278 81.8129 114.619C78.2571 117.373 73.7941 119.012 68.9496 119.012C57.3367 119.012 47.9227 109.598 47.9227 97.9851C47.9227 86.3725 57.3367 76.9586 68.9496 76.9586C75.9657 76.9586 82.1789 80.395 85.9986 85.6765C87.2822 87.4514 89.7096 88.1905 91.8309 87.6445C93.0014 87.3433 94.228 87.183 95.4924 87.183C103.58 87.183 110.136 93.7392 110.136 101.827C110.136 109.914 103.58 116.47 95.4924 116.47C92.7359 116.47 90.1577 115.708 87.9565 114.384Z" fill="url(#paint29_linear_855_42112)"/>
<path d="M87.9565 114.384C86.0799 113.256 83.5438 113.278 81.8129 114.619C78.2571 117.373 73.7941 119.012 68.9496 119.012C57.3367 119.012 47.9227 109.598 47.9227 97.9851C47.9227 86.3725 57.3367 76.9586 68.9496 76.9586C75.9657 76.9586 82.1789 80.395 85.9986 85.6765C87.2822 87.4514 89.7096 88.1905 91.8309 87.6445C93.0014 87.3433 94.228 87.183 95.4924 87.183C103.58 87.183 110.136 93.7392 110.136 101.827C110.136 109.914 103.58 116.47 95.4924 116.47C92.7359 116.47 90.1577 115.708 87.9565 114.384Z" fill="url(#paint30_radial_855_42112)"/>
<path d="M87.9565 114.384C86.0799 113.256 83.5438 113.278 81.8129 114.619C78.2571 117.373 73.7941 119.012 68.9496 119.012C57.3367 119.012 47.9227 109.598 47.9227 97.9851C47.9227 86.3725 57.3367 76.9586 68.9496 76.9586C75.9657 76.9586 82.1789 80.395 85.9986 85.6765C87.2822 87.4514 89.7096 88.1905 91.8309 87.6445C93.0014 87.3433 94.228 87.183 95.4924 87.183C103.58 87.183 110.136 93.7392 110.136 101.827C110.136 109.914 103.58 116.47 95.4924 116.47C92.7359 116.47 90.1577 115.708 87.9565 114.384Z" fill="url(#paint31_radial_855_42112)"/>
<path d="M87.9565 114.384C86.0799 113.256 83.5438 113.278 81.8129 114.619C78.2571 117.373 73.7941 119.012 68.9496 119.012C57.3367 119.012 47.9227 109.598 47.9227 97.9851C47.9227 86.3725 57.3367 76.9586 68.9496 76.9586C75.9657 76.9586 82.1789 80.395 85.9986 85.6765C87.2822 87.4514 89.7096 88.1905 91.8309 87.6445C93.0014 87.3433 94.228 87.183 95.4924 87.183C103.58 87.183 110.136 93.7392 110.136 101.827C110.136 109.914 103.58 116.47 95.4924 116.47C92.7359 116.47 90.1577 115.708 87.9565 114.384Z" fill="url(#paint32_radial_855_42112)"/>
<path d="M87.9565 114.384C86.0799 113.256 83.5438 113.278 81.8129 114.619C78.2571 117.373 73.7941 119.012 68.9496 119.012C57.3367 119.012 47.9227 109.598 47.9227 97.9851C47.9227 86.3725 57.3367 76.9586 68.9496 76.9586C75.9657 76.9586 82.1789 80.395 85.9986 85.6765C87.2822 87.4514 89.7096 88.1905 91.8309 87.6445C93.0014 87.3433 94.228 87.183 95.4924 87.183C103.58 87.183 110.136 93.7392 110.136 101.827C110.136 109.914 103.58 116.47 95.4924 116.47C92.7359 116.47 90.1577 115.708 87.9565 114.384Z" fill="url(#paint33_radial_855_42112)"/>
<g filter="url(#filter4_f_855_42112)">
<path d="M47.9227 234.742V164.464" stroke="url(#paint34_linear_855_42112)" stroke-width="0.5" stroke-linecap="round"/>
</g>
<path d="M68.9208 119.098C80.5813 119.098 90.034 109.646 90.034 97.9851C90.034 86.3246 80.5813 76.8719 68.9208 76.8719C57.2603 76.8719 47.8076 86.3246 47.8076 97.9851C47.8076 109.646 57.2603 119.098 68.9208 119.098Z" fill="url(#paint35_radial_855_42112)"/>
<path d="M68.9208 119.098C80.5813 119.098 90.034 109.646 90.034 97.9851C90.034 86.3246 80.5813 76.8719 68.9208 76.8719C57.2603 76.8719 47.8076 86.3246 47.8076 97.9851C47.8076 109.646 57.2603 119.098 68.9208 119.098Z" fill="url(#paint36_radial_855_42112)"/>
<path d="M68.9208 119.098C80.5813 119.098 90.034 109.646 90.034 97.9851C90.034 86.3246 80.5813 76.8719 68.9208 76.8719C57.2603 76.8719 47.8076 86.3246 47.8076 97.9851C47.8076 109.646 57.2603 119.098 68.9208 119.098Z" fill="url(#paint37_radial_855_42112)"/>
<path d="M68.9208 119.098C80.5813 119.098 90.034 109.646 90.034 97.9851C90.034 86.3246 80.5813 76.8719 68.9208 76.8719C57.2603 76.8719 47.8076 86.3246 47.8076 97.9851C47.8076 109.646 57.2603 119.098 68.9208 119.098Z" fill="url(#paint38_radial_855_42112)"/>
<path d="M84 34.5452C84 18.4497 87.4497 15 103.545 15H212.455C228.55 15 232 18.4497 232 34.5452V60.9548C232 77.0503 228.55 80.5 212.455 80.5H103.545C87.4497 80.5 84 77.0503 84 60.9548V34.5452Z" fill="url(#paint39_linear_855_42112)"/>
<g filter="url(#filter5_d_855_42112)">
<path d="M112.139 34.1988L112.025 43.1979H114.318C115.884 43.1597 117.279 43.1406 118.502 43.1406C119.725 43.1406 121.081 43.1597 122.572 43.1979H122.858C123.317 43.1979 123.756 43.217 124.176 43.2552C124.635 43.2552 125.074 43.2552 125.495 43.2552C125.953 43.2935 126.393 43.3699 126.813 43.4845C127.233 43.5609 127.654 43.6565 128.074 43.7711C128.724 44.0004 129.259 44.3443 129.679 44.8029C130.061 45.2996 130.252 45.8537 130.252 46.4651C130.252 46.6562 130.252 46.8854 130.252 47.1529C130.252 47.3822 130.214 47.5924 130.138 47.7834C130.061 48.2038 129.813 48.5859 129.392 48.9298C129.201 49.1973 128.838 49.3884 128.303 49.503C127.807 49.6559 127.31 49.7514 126.813 49.7896C126.278 49.9042 125.743 49.9616 125.208 49.9616H122.514L111.91 50.0189L111.796 61.2534L123.202 61.3681H125.896C126.202 61.3681 126.488 61.3681 126.756 61.3681C127.023 61.3681 127.272 61.3872 127.501 61.4254C127.807 61.5018 128.074 61.5591 128.303 61.5973C128.571 61.5973 128.819 61.6355 129.049 61.712C129.507 61.8648 129.889 62.075 130.195 62.3425C130.577 62.7246 130.825 63.1258 130.94 63.5462C130.978 63.7372 130.997 63.9474 130.997 64.1767C131.036 64.3677 131.036 64.5779 130.997 64.8072C130.997 65.4186 130.806 65.9727 130.424 66.4694C129.966 67.0044 129.431 67.3483 128.819 67.5012C128.017 67.8451 127.138 68.0171 126.183 68.0171C125.762 68.0553 125.323 68.0744 124.864 68.0744C124.406 68.0744 123.966 68.0935 123.546 68.1317H123.202C120.221 68.2081 117.126 68.2081 113.916 68.1317C113.152 68.1317 112.541 68.1126 112.082 68.0744C111.624 68.0744 111.203 68.0744 110.821 68.0744C110.477 68.0744 110.114 68.0744 109.732 68.0744C109.35 68.0744 108.853 68.0744 108.242 68.0744C107.363 68.1508 106.637 67.998 106.064 67.6158C105.643 67.3483 105.318 66.9853 105.089 66.5268C104.975 66.4121 104.917 66.2975 104.917 66.1828C104.879 66.1064 104.841 66.0491 104.803 66.0109C104.764 65.9727 104.726 65.9154 104.688 65.8389C104.612 65.6479 104.554 65.4568 104.516 65.2657C104.478 65.0365 104.459 64.8263 104.459 64.6352C104.42 64.4442 104.382 64.2531 104.344 64.062C104.344 63.871 104.325 63.6799 104.287 63.4889V62.5718C104.287 62.4189 104.287 62.2661 104.287 62.1132C104.325 61.9603 104.344 61.8075 104.344 61.6546V57.1838L104.459 48.9298V41.3064C104.459 39.9307 104.459 38.7079 104.459 37.638C104.497 36.568 104.535 35.4025 104.573 34.1415V33.8549C104.612 33.4346 104.631 33.0525 104.631 32.7085C104.669 32.3264 104.688 31.9443 104.688 31.5622C104.726 30.7979 104.936 30.0528 105.318 29.3267C105.471 29.021 105.624 28.7535 105.777 28.5243C105.968 28.295 106.216 28.1039 106.522 27.9511C107.095 27.6071 107.688 27.4352 108.299 27.4352C108.605 27.4352 108.834 27.4543 108.987 27.4925V27.4352C109.675 27.4352 110.229 27.4352 110.649 27.4352C111.069 27.4352 111.471 27.4352 111.853 27.4352C112.273 27.4352 112.713 27.4352 113.171 27.4352C113.63 27.397 114.26 27.3779 115.063 27.3779C116.591 27.3397 118.043 27.3206 119.419 27.3206C120.795 27.3206 122.208 27.3397 123.661 27.3779H123.89C124.31 27.4161 124.75 27.4352 125.208 27.4352C125.667 27.4352 126.106 27.4543 126.527 27.4925C126.947 27.4925 127.367 27.5498 127.788 27.6645C128.208 27.7409 128.628 27.8555 129.049 28.0084C129.698 28.1994 130.233 28.5243 130.653 28.9828C130.997 29.5178 131.169 30.0528 131.169 30.5877C131.169 30.817 131.169 31.0463 131.169 31.2756C131.169 31.4666 131.131 31.6577 131.055 31.8488C131.017 32.2309 130.787 32.6321 130.367 33.0525C130.214 33.1289 130.042 33.2244 129.851 33.339C129.698 33.4537 129.507 33.5492 129.278 33.6256C129.049 33.7021 128.8 33.7594 128.533 33.7976C128.303 33.7976 128.074 33.8167 127.845 33.8549C127.539 33.9313 127.253 33.9696 126.985 33.9696C126.756 33.9696 126.488 33.9696 126.183 33.9696H123.603L112.139 34.0269V34.1988Z" fill="white"/>
<path d="M166.64 62.6291C167.06 63.3933 167.232 64.062 167.156 64.6352C167.118 65.2084 167.06 65.6861 166.984 66.0682C166.869 66.4886 166.583 66.8516 166.124 67.1573C165.704 67.4248 165.226 67.6349 164.691 67.7878C164.003 67.9788 163.43 68.0171 162.972 67.9024C162.398 67.7878 161.921 67.5967 161.539 67.3292C161.309 67.1382 161.099 66.9662 160.908 66.8134C160.717 66.6223 160.526 66.4503 160.335 66.2975C160.144 66.1064 159.972 65.9345 159.819 65.7816C159.666 65.6288 159.552 65.4759 159.475 65.3231C159.399 65.1702 159.322 65.0747 159.246 65.0365C159.208 64.96 159.169 64.9027 159.131 64.8645L151.508 53.8593L143.942 64.8645C143.903 64.9027 143.846 64.96 143.77 65.0365C143.731 65.0747 143.655 65.1702 143.54 65.3231C143.464 65.4759 143.349 65.6288 143.197 65.7816C143.082 65.9345 142.948 66.1064 142.795 66.2975C142.604 66.4503 142.394 66.6223 142.165 66.8134C141.935 66.9662 141.725 67.1382 141.534 67.3292C141.305 67.4821 141.057 67.5967 140.789 67.6731C140.56 67.7496 140.331 67.826 140.101 67.9024C139.605 68.0171 139.07 67.9788 138.496 67.7878C137.312 67.5203 136.49 66.9471 136.032 66.0682C135.802 65.6097 135.707 65.132 135.745 64.6352C135.783 64.1003 135.898 63.5653 136.089 63.0303C136.318 62.4953 136.567 61.9795 136.834 61.4827C137.14 60.9859 137.446 60.5083 137.751 60.0497C137.904 59.8586 138.038 59.6867 138.152 59.5338C138.305 59.381 138.458 59.209 138.611 59.018C139.108 58.3684 139.585 57.7187 140.044 57.0691C140.503 56.3813 140.999 55.6553 141.534 54.891L146.865 47.1529L139.012 35.8038L138.324 34.8293C138.172 34.6001 138.019 34.3899 137.866 34.1988C137.713 34.0078 137.56 33.7785 137.407 33.511C137.254 33.3199 137.102 33.1098 136.949 32.8805C136.796 32.6512 136.662 32.3837 136.548 32.078C136.433 31.8488 136.318 31.6386 136.204 31.4475C136.127 31.2182 136.051 30.9508 135.974 30.6451C135.86 30.1865 135.821 29.7662 135.86 29.384C135.974 28.8873 136.223 28.4669 136.605 28.123C136.758 27.932 136.93 27.7791 137.121 27.6645C137.35 27.5498 137.56 27.4352 137.751 27.3206C138.133 27.1677 138.477 27.0531 138.783 26.9766C139.089 26.9002 139.413 26.862 139.757 26.862C140.445 26.9002 141.095 27.1486 141.706 27.6071C142.47 28.1039 143.158 28.7153 143.77 29.4414C144.037 29.8617 144.305 30.2629 144.572 30.6451C144.84 30.989 145.126 31.352 145.432 31.7341L145.489 31.9634C146.445 33.2244 147.304 34.4472 148.069 35.6318C148.871 36.7782 149.75 38.001 150.705 39.3002C150.858 39.4913 150.992 39.6824 151.107 39.8734C151.221 40.0645 151.355 40.2555 151.508 40.4466C151.661 40.2555 151.794 40.0645 151.909 39.8734C152.024 39.6824 152.157 39.4913 152.31 39.3002C153.189 38.001 154.03 36.7782 154.832 35.6318C155.673 34.4472 156.552 33.2244 157.469 31.9634L157.584 31.7341C157.889 31.352 158.176 30.989 158.443 30.6451C158.749 30.2629 159.036 29.8617 159.303 29.4414C159.915 28.7153 160.602 28.1039 161.367 27.6071C161.94 27.1486 162.589 26.9002 163.315 26.862C163.927 26.862 164.577 27.0149 165.264 27.3206C165.723 27.588 166.067 27.8555 166.296 28.123C166.755 28.4669 167.041 28.8873 167.156 29.384C167.194 29.7662 167.156 30.1865 167.041 30.6451C166.965 30.9508 166.869 31.2182 166.755 31.4475C166.678 31.6386 166.544 31.8488 166.353 32.078C166.124 32.6512 165.876 33.1289 165.608 33.511C165.455 33.7785 165.303 34.0078 165.15 34.1988C164.997 34.3899 164.863 34.6001 164.748 34.8293L164.061 35.8038L156.151 47.1529L161.481 54.891L164.577 59.2472C164.92 59.8204 165.264 60.3745 165.608 60.9095C165.952 61.4445 166.296 62.0177 166.64 62.6291Z" fill="white"/>
<path d="M173.57 61.8266L173.628 57.2984L173.685 48.8725C173.723 47.6497 173.742 46.3887 173.742 45.0894C173.742 43.7902 173.742 42.4528 173.742 41.0771C173.742 39.7015 173.742 38.4787 173.742 37.4087C173.742 36.3387 173.78 35.135 173.857 33.7976V33.5683C173.895 33.1862 173.914 32.8041 173.914 32.4219C173.952 32.0016 173.971 31.5813 173.971 31.1609C174.01 30.4731 174.22 29.728 174.602 28.9255C174.869 28.3905 175.271 27.932 175.806 27.5498C176.417 27.2441 177.009 27.0913 177.583 27.0913C177.888 27.0913 178.156 27.1104 178.385 27.1486C178.653 27.1486 178.901 27.1677 179.13 27.2059C179.627 27.2823 180.066 27.5116 180.449 27.8937C180.678 28.0848 180.888 28.3905 181.079 28.8108C181.155 29.0401 181.213 29.2694 181.251 29.4987C181.327 29.6897 181.385 29.8999 181.423 30.1292C181.461 30.3967 181.48 30.6451 181.48 30.8743C181.518 31.1036 181.538 31.3329 181.538 31.5622C181.538 31.8296 181.518 32.078 181.48 32.3073C181.48 32.4984 181.48 32.7085 181.48 32.9378V33.9122L181.136 63.6608V64.234C181.136 64.3486 181.117 64.5015 181.079 64.6926C181.079 64.8454 181.06 65.0365 181.022 65.2657C180.945 65.4568 180.869 65.667 180.792 65.8963C180.754 66.0873 180.697 66.2975 180.62 66.5268C180.506 66.7178 180.372 66.9089 180.219 67.1C180.105 67.2528 179.952 67.4057 179.761 67.5585C179.455 67.8642 178.958 68.0744 178.27 68.189C177.239 68.4183 176.264 68.3228 175.347 67.9024C174.889 67.5967 174.564 67.2146 174.373 66.756C174.258 66.6414 174.201 66.5268 174.201 66.4121C174.163 66.3357 174.124 66.2784 174.086 66.2402C174.048 66.202 174.01 66.1446 173.971 66.0682C173.895 65.8771 173.838 65.6861 173.799 65.495C173.761 65.2657 173.742 65.0365 173.742 64.8072C173.704 64.6161 173.666 64.4251 173.628 64.234C173.628 64.0429 173.608 63.8519 173.57 63.6608C173.532 63.3551 173.532 63.0303 173.57 62.6864V61.8266Z" fill="white"/>
<path d="M214.626 29.0401C214.97 29.4987 215.18 30.0337 215.257 30.6451C215.257 30.8743 215.238 31.1036 215.2 31.3329C215.2 31.5239 215.18 31.715 215.142 31.9061C215.104 32.3264 214.856 32.7276 214.397 33.1098C214.13 33.3008 213.786 33.4919 213.365 33.683C213.136 33.7594 212.888 33.8167 212.62 33.8549C212.391 33.8549 212.123 33.874 211.818 33.9122C211.588 33.9887 211.34 34.0269 211.073 34.0269C210.805 34.0269 210.538 34.0269 210.27 34.0269H207.691L195.711 34.0842V34.2562L195.654 43.5992C195.959 43.5992 196.284 43.5992 196.628 43.5992C197.01 43.5992 197.469 43.58 198.004 43.5418C199.532 43.5418 200.889 43.5418 202.073 43.5418C203.296 43.5418 204.634 43.5609 206.086 43.5992H206.43C206.85 43.5992 207.27 43.6183 207.691 43.6565C208.149 43.6565 208.608 43.6565 209.066 43.6565C209.487 43.6947 209.907 43.752 210.327 43.8284C210.748 43.8666 211.168 43.9622 211.588 44.115C212.276 44.3443 212.773 44.7073 213.079 45.2041C213.499 45.7009 213.709 46.2167 213.709 46.7517C213.709 46.981 213.709 47.2103 213.709 47.4395C213.709 47.6306 213.671 47.8408 213.595 48.07C213.556 48.3757 213.308 48.7579 212.849 49.2164C212.544 49.4839 212.181 49.6559 211.76 49.7323C211.569 49.8087 211.34 49.8851 211.073 49.9616C210.843 49.9998 210.595 50.038 210.327 50.0762C210.06 50.1144 209.792 50.1526 209.525 50.1908C209.296 50.1908 209.028 50.1908 208.722 50.1908H206.086L195.539 50.2482L195.367 63.5462V64.0047C195.367 64.1958 195.348 64.3869 195.31 64.5779C195.31 64.7308 195.291 64.9027 195.252 65.0938C195.176 65.2849 195.1 65.495 195.023 65.7243C194.985 65.9154 194.928 66.1064 194.851 66.2975C194.584 66.8325 194.335 67.1955 194.106 67.3866C193.686 67.6923 193.17 67.9024 192.558 68.0171C191.527 68.2463 190.552 68.1317 189.635 67.6731C189.444 67.5585 189.253 67.4248 189.062 67.2719C188.909 67.0808 188.775 66.8516 188.661 66.5841C188.584 66.4312 188.546 66.3166 188.546 66.2402L188.374 65.8963C188.26 65.7052 188.183 65.5141 188.145 65.3231C188.107 65.0938 188.069 64.8836 188.03 64.6926C188.03 64.5015 188.011 64.3104 187.973 64.1194C187.973 63.9283 187.954 63.7372 187.916 63.5462C187.877 63.2405 187.877 62.9348 187.916 62.6291V61.712L187.973 57.2411L188.03 48.9871C188.069 47.7643 188.088 46.5224 188.088 45.2614C188.088 44.0004 188.088 42.7012 188.088 41.3637C188.049 39.9881 188.03 38.7653 188.03 37.6953C188.069 36.6253 188.126 35.4599 188.202 34.1988V33.9122C188.24 33.4919 188.26 33.1098 188.26 32.7659C188.26 32.3837 188.298 32.0016 188.374 31.6195C188.451 30.7788 188.642 30.0337 188.947 29.384C189.215 28.7344 189.597 28.2759 190.094 28.0084C190.667 27.6645 191.278 27.4925 191.928 27.4925C192.234 27.4925 192.482 27.5116 192.673 27.5498V27.4925C193.361 27.4925 193.915 27.4925 194.335 27.4925C194.756 27.4925 195.157 27.4925 195.539 27.4925C195.921 27.4925 196.342 27.4925 196.8 27.4925C197.259 27.4543 197.87 27.4352 198.634 27.4352C201.691 27.397 204.71 27.397 207.691 27.4352H207.977C208.398 27.4734 208.818 27.4925 209.238 27.4925C209.697 27.4925 210.155 27.5116 210.614 27.5498C211.034 27.5498 211.455 27.6071 211.875 27.7218C212.295 27.7982 212.716 27.9128 213.136 28.0657C213.786 28.2568 214.282 28.5816 214.626 29.0401Z" fill="white"/>
</g>
<g filter="url(#filter6_bd_855_42112)">
<mask id="path-43-inside-1_855_42112" fill="white">
<path fill-rule="evenodd" clip-rule="evenodd" d="M217.2 204.338C230.976 189.031 239.36 168.775 239.36 146.56C239.36 98.8426 200.677 60.16 152.96 60.16C105.243 60.16 66.5601 98.8426 66.5601 146.56C66.5601 194.277 105.243 232.96 152.96 232.96C171.245 232.96 188.203 227.28 202.166 217.588L232.289 247.711C236.194 251.616 242.526 251.616 246.431 247.711C250.336 243.806 250.336 237.474 246.431 233.569L217.2 204.338Z"/>
</mask>
<path fill-rule="evenodd" clip-rule="evenodd" d="M217.2 204.338C230.976 189.031 239.36 168.775 239.36 146.56C239.36 98.8426 200.677 60.16 152.96 60.16C105.243 60.16 66.5601 98.8426 66.5601 146.56C66.5601 194.277 105.243 232.96 152.96 232.96C171.245 232.96 188.203 227.28 202.166 217.588L232.289 247.711C236.194 251.616 242.526 251.616 246.431 247.711C250.336 243.806 250.336 237.474 246.431 233.569L217.2 204.338Z" fill="white" fill-opacity="0.65" shape-rendering="crispEdges"/>
<path d="M217.2 204.338L206.051 194.304L196.531 204.882L206.594 214.945L217.2 204.338ZM202.166 217.588L212.773 206.982L203.91 198.119L193.614 205.266L202.166 217.588ZM232.289 247.711L221.682 258.318L221.682 258.318L232.289 247.711ZM246.431 233.569L257.038 222.962L257.038 222.962L246.431 233.569ZM224.36 146.56C224.36 164.927 217.444 181.644 206.051 194.304L228.35 214.372C244.508 196.418 254.36 172.622 254.36 146.56H224.36ZM152.96 75.16C192.393 75.16 224.36 107.127 224.36 146.56H254.36C254.36 90.5583 208.962 45.16 152.96 45.16V75.16ZM81.5601 146.56C81.5601 107.127 113.527 75.16 152.96 75.16V45.16C96.9584 45.16 51.5601 90.5583 51.5601 146.56H81.5601ZM152.96 217.96C113.527 217.96 81.5601 185.993 81.5601 146.56H51.5601C51.5601 202.562 96.9584 247.96 152.96 247.96V217.96ZM193.614 205.266C182.081 213.27 168.09 217.96 152.96 217.96V247.96C174.399 247.96 194.325 241.29 210.719 229.911L193.614 205.266ZM242.896 237.104L212.773 206.982L191.56 228.195L221.682 258.318L242.896 237.104ZM235.825 237.104C237.777 235.152 240.943 235.152 242.896 237.104L221.682 258.318C231.445 268.081 247.275 268.081 257.038 258.318L235.825 237.104ZM235.825 244.175C233.872 242.223 233.872 239.057 235.825 237.104L257.038 258.318C266.801 248.555 266.801 232.725 257.038 222.962L235.825 244.175ZM206.594 214.945L235.825 244.175L257.038 222.962L227.807 193.731L206.594 214.945Z" fill="url(#paint40_linear_855_42112)" mask="url(#path-43-inside-1_855_42112)"/>
</g>
<g filter="url(#filter7_d_855_42112)">
<path d="M104.754 168.863C99.8981 160.452 97.9531 150.674 99.2208 141.044C100.489 131.415 104.898 122.473 111.766 115.606" stroke="white" stroke-opacity="0.8" stroke-width="18" stroke-linecap="round" stroke-linejoin="round" shape-rendering="crispEdges"/>
</g>
</g>
<defs>
<filter id="filter0_b_855_42112" x="-100" y="-100" width="456" height="456" filterUnits="userSpaceOnUse" color-interpolation-filters="sRGB">
<feFlood flood-opacity="0" result="BackgroundImageFix"/>
<feGaussianBlur in="BackgroundImageFix" stdDeviation="50"/>
<feComposite in2="SourceAlpha" operator="in" result="effect1_backgroundBlur_855_42112"/>
<feBlend mode="normal" in="SourceGraphic" in2="effect1_backgroundBlur_855_42112" result="shape"/>
</filter>
<filter id="filter1_f_855_42112" x="23.97" y="132" width="86.6661" height="104.45" filterUnits="userSpaceOnUse" color-interpolation-filters="sRGB">
<feFlood flood-opacity="0" result="BackgroundImageFix"/>
<feBlend mode="normal" in="SourceGraphic" in2="BackgroundImageFix" result="shape"/>
<feGaussianBlur stdDeviation="0.25" result="effect1_foregroundBlur_855_42112"/>
</filter>
<filter id="filter2_f_855_42112" x="105.738" y="161.053" width="42.4177" height="88.2609" filterUnits="userSpaceOnUse" color-interpolation-filters="sRGB">
<feFlood flood-opacity="0" result="BackgroundImageFix"/>
<feBlend mode="normal" in="SourceGraphic" in2="BackgroundImageFix" result="shape"/>
<feGaussianBlur stdDeviation="0.5" result="effect1_foregroundBlur_855_42112"/>
</filter>
<filter id="filter3_d_855_42112" x="24.22" y="122.849" width="90.6895" height="119.644" filterUnits="userSpaceOnUse" color-interpolation-filters="sRGB">
<feFlood flood-opacity="0" result="BackgroundImageFix"/>
<feColorMatrix in="SourceAlpha" type="matrix" values="0 0 0 0 0 0 0 0 0 0 0 0 0 0 0 0 0 0 127 0" result="hardAlpha"/>
<feOffset dx="0.5" dy="0.5"/>
<feGaussianBlur stdDeviation="0.375"/>
<feComposite in2="hardAlpha" operator="out"/>
<feColorMatrix type="matrix" values="0 0 0 0 0.768627 0 0 0 0 0.407843 0 0 0 0 0.219608 0 0 0 1 0"/>
<feBlend mode="normal" in2="BackgroundImageFix" result="effect1_dropShadow_855_42112"/>
<feBlend mode="normal" in="SourceGraphic" in2="effect1_dropShadow_855_42112" result="shape"/>
</filter>
<filter id="filter4_f_855_42112" x="47.1727" y="163.714" width="1.5" height="71.7787" filterUnits="userSpaceOnUse" color-interpolation-filters="sRGB">
<feFlood flood-opacity="0" result="BackgroundImageFix"/>
<feBlend mode="normal" in="SourceGraphic" in2="BackgroundImageFix" result="shape"/>
<feGaussianBlur stdDeviation="0.25" result="effect1_foregroundBlur_855_42112"/>
</filter>
<filter id="filter5_d_855_42112" x="102.287" y="24.862" width="114.97" height="45.4484" filterUnits="userSpaceOnUse" color-interpolation-filters="sRGB">
<feFlood flood-opacity="0" result="BackgroundImageFix"/>
<feColorMatrix in="SourceAlpha" type="matrix" values="0 0 0 0 0 0 0 0 0 0 0 0 0 0 0 0 0 0 127 0" result="hardAlpha"/>
<feOffset/>
<feGaussianBlur stdDeviation="1"/>
<feComposite in2="hardAlpha" operator="out"/>
<feColorMatrix type="matrix" values="0 0 0 0 0 0 0 0 0 0 0 0 0 0 0 0 0 0 0.5 0"/>
<feBlend mode="normal" in2="BackgroundImageFix" result="effect1_dropShadow_855_42112"/>
<feBlend mode="normal" in="SourceGraphic" in2="effect1_dropShadow_855_42112" result="shape"/>
</filter>
<filter id="filter6_bd_855_42112" x="56.5601" y="50.16" width="202.8" height="210.48" filterUnits="userSpaceOnUse" color-interpolation-filters="sRGB">
<feFlood flood-opacity="0" result="BackgroundImageFix"/>
<feGaussianBlur in="BackgroundImageFix" stdDeviation="5"/>
<feComposite in2="SourceAlpha" operator="in" result="effect1_backgroundBlur_855_42112"/>
<feColorMatrix in="SourceAlpha" type="matrix" values="0 0 0 0 0 0 0 0 0 0 0 0 0 0 0 0 0 0 127 0" result="hardAlpha"/>
<feOffset dx="1" dy="1"/>
<feGaussianBlur stdDeviation="0.5"/>
<feComposite in2="hardAlpha" operator="out"/>
<feColorMatrix type="matrix" values="0 0 0 0 0 0 0 0 0 0 0 0 0 0 0 0 0 0 0.25 0"/>
<feBlend mode="normal" in2="effect1_backgroundBlur_855_42112" result="effect2_dropShadow_855_42112"/>
<feBlend mode="normal" in="SourceGraphic" in2="effect2_dropShadow_855_42112" result="shape"/>
</filter>
<filter id="filter7_d_855_42112" x="86.8433" y="103.606" width="36.9225" height="77.2592" filterUnits="userSpaceOnUse" color-interpolation-filters="sRGB">
<feFlood flood-opacity="0" result="BackgroundImageFix"/>
<feColorMatrix in="SourceAlpha" type="matrix" values="0 0 0 0 0 0 0 0 0 0 0 0 0 0 0 0 0 0 127 0" result="hardAlpha"/>
<feOffset/>
<feGaussianBlur stdDeviation="1.5"/>
<feComposite in2="hardAlpha" operator="out"/>
<feColorMatrix type="matrix" values="0 0 0 0 0 0 0 0 0 0 0 0 0 0 0 0 0 0 0.1 0"/>
<feBlend mode="normal" in2="BackgroundImageFix" result="effect1_dropShadow_855_42112"/>
<feBlend mode="normal" in="SourceGraphic" in2="effect1_dropShadow_855_42112" result="shape"/>
</filter>
<linearGradient id="paint0_linear_855_42112" x1="128" y1="0" x2="128" y2="256" gradientUnits="userSpaceOnUse">
<stop stop-color="#DEDBE5"/>
<stop offset="1" stop-color="#C9C3E8"/>
</linearGradient>
<radialGradient id="paint1_angular_855_42112" cx="0" cy="0" r="1" gradientUnits="userSpaceOnUse" gradientTransform="translate(128 128) rotate(-117.249) scale(169.429)">
<stop offset="0.165225" stop-color="#FF6902"/>
<stop offset="0.465759" stop-color="#36045C"/>
<stop offset="0.799628" stop-color="#BFB6CC"/>
</radialGradient>
<linearGradient id="paint2_linear_855_42112" x1="-8.40404" y1="8.14919e-09" x2="266.343" y2="268.283" gradientUnits="userSpaceOnUse">
<stop stop-color="#9D94A6" stop-opacity="0"/>
<stop offset="1" stop-color="#9D94A6"/>
</linearGradient>
<linearGradient id="paint3_linear_855_42112" x1="69.17" y1="203.994" x2="69.17" y2="264.002" gradientUnits="userSpaceOnUse">
<stop offset="0.0195839" stop-color="#52337C"/>
<stop offset="0.766091" stop-color="#342E47"/>
</linearGradient>
<linearGradient id="paint4_linear_855_42112" x1="-9.87873" y1="211.823" x2="8.60612" y2="219.91" gradientUnits="userSpaceOnUse">
<stop stop-color="#242327"/>
<stop offset="1" stop-color="#26242B" stop-opacity="0"/>
</linearGradient>
<linearGradient id="paint5_linear_855_42112" x1="69.17" y1="226.233" x2="69.17" y2="264.002" gradientUnits="userSpaceOnUse">
<stop offset="0.693778" stop-color="#27225A" stop-opacity="0"/>
<stop offset="1" stop-color="#27225A"/>
</linearGradient>
<linearGradient id="paint6_linear_855_42112" x1="129.129" y1="234.965" x2="96.3841" y2="149.205" gradientUnits="userSpaceOnUse">
<stop stop-color="#553C7D"/>
<stop offset="1" stop-color="#553C7D" stop-opacity="0"/>
</linearGradient>
<linearGradient id="paint7_linear_855_42112" x1="143.787" y1="265.839" x2="143.631" y2="249.934" gradientUnits="userSpaceOnUse">
<stop stop-color="#392680"/>
<stop offset="1" stop-color="#392680" stop-opacity="0"/>
</linearGradient>
<radialGradient id="paint8_radial_855_42112" cx="0" cy="0" r="1" gradientUnits="userSpaceOnUse" gradientTransform="translate(74.393 123.304) rotate(90) scale(29.9493 28.3783)">
<stop stop-color="#E9DAED"/>
<stop offset="1" stop-color="#B3ACB6"/>
</radialGradient>
<radialGradient id="paint9_radial_855_42112" cx="0" cy="0" r="1" gradientUnits="userSpaceOnUse" gradientTransform="translate(80.618 136.572) rotate(111.801) scale(13.0652 7.32352)">
<stop stop-color="#C9AFB2"/>
<stop offset="1" stop-color="#C9AFB2" stop-opacity="0"/>
</radialGradient>
<linearGradient id="paint10_linear_855_42112" x1="45.5516" y1="143.279" x2="110.73" y2="143.279" gradientUnits="userSpaceOnUse">
<stop stop-color="#FF804A"/>
<stop offset="0.832986" stop-color="#FF655E"/>
</linearGradient>
<radialGradient id="paint11_radial_855_42112" cx="0" cy="0" r="1" gradientUnits="userSpaceOnUse" gradientTransform="translate(96.7065 184.542) rotate(-92.9357) scale(36.7562 21.2262)">
<stop offset="0.268293" stop-color="#CA2C4D"/>
<stop offset="1" stop-color="#CA2C4D" stop-opacity="0"/>
</radialGradient>
<radialGradient id="paint12_radial_855_42112" cx="0" cy="0" r="1" gradientUnits="userSpaceOnUse" gradientTransform="translate(82.5886 123.099) rotate(90) scale(28.501 18.66)">
<stop stop-color="#D74B32"/>
<stop offset="1" stop-color="#D74B32" stop-opacity="0"/>
</radialGradient>
<radialGradient id="paint13_radial_855_42112" cx="0" cy="0" r="1" gradientUnits="userSpaceOnUse" gradientTransform="translate(64.7048 184.072) rotate(-90) scale(19.2952 11.4516)">
<stop offset="0.300813" stop-color="#C93B38"/>
<stop offset="1" stop-color="#C93B38" stop-opacity="0"/>
</radialGradient>
<radialGradient id="paint14_radial_855_42112" cx="0" cy="0" r="1" gradientUnits="userSpaceOnUse" gradientTransform="translate(65.6461 131.05) rotate(90) scale(11.7654 7.84357)">
<stop stop-color="#FF8752"/>
<stop offset="1" stop-color="#FF8752" stop-opacity="0"/>
</radialGradient>
<radialGradient id="paint15_radial_855_42112" cx="0" cy="0" r="1" gradientUnits="userSpaceOnUse" gradientTransform="translate(43.9981 241.243) rotate(-90) scale(35.366 10.6672)">
<stop stop-color="#E56751"/>
<stop offset="1" stop-color="#E56751" stop-opacity="0"/>
</radialGradient>
<radialGradient id="paint16_radial_855_42112" cx="0" cy="0" r="1" gradientUnits="userSpaceOnUse" gradientTransform="translate(87.5661 69.139) rotate(166.745) scale(27.5533 27.5533)">
<stop offset="0.190467" stop-color="#BBBABD"/>
<stop offset="1" stop-color="#919092"/>
</radialGradient>
<radialGradient id="paint17_radial_855_42112" cx="0" cy="0" r="1" gradientUnits="userSpaceOnUse" gradientTransform="translate(82.8421 80.8578) rotate(-124.717) scale(9.38187 13.4894)">
<stop offset="0.315541" stop-color="#939294"/>
<stop offset="1" stop-color="#939294" stop-opacity="0"/>
</radialGradient>
<linearGradient id="paint18_linear_855_42112" x1="101.991" y1="89.5611" x2="101.991" y2="118.77" gradientUnits="userSpaceOnUse">
<stop stop-color="#BFBEBF"/>
<stop offset="1" stop-color="#C0B1D7"/>
</linearGradient>
<radialGradient id="paint19_radial_855_42112" cx="0" cy="0" r="1" gradientUnits="userSpaceOnUse" gradientTransform="translate(127.754 97.6933) rotate(162.469) scale(18.7325 18.9728)">
<stop stop-color="#D8D6DA"/>
<stop offset="1" stop-color="#D8D6DA" stop-opacity="0"/>
</radialGradient>
<radialGradient id="paint20_radial_855_42112" cx="0" cy="0" r="1" gradientUnits="userSpaceOnUse" gradientTransform="translate(103.17 89.3951) rotate(11.3099) scale(6.34687 18.3274)">
<stop offset="0.278879" stop-color="#D0CFD2"/>
<stop offset="0.948805" stop-color="#D0CFD2" stop-opacity="0"/>
</radialGradient>
<linearGradient id="paint21_linear_855_42112" x1="109.74" y1="117.124" x2="109.74" y2="112.696" gradientUnits="userSpaceOnUse">
<stop stop-color="#B7ABD1"/>
<stop offset="0.464702" stop-color="#B7ABD1" stop-opacity="0"/>
</linearGradient>
<radialGradient id="paint22_radial_855_42112" cx="0" cy="0" r="1" gradientUnits="userSpaceOnUse" gradientTransform="translate(102.135 83.5651) rotate(-155.432) scale(27.4207)">
<stop offset="0.190467" stop-color="#CAC8CD"/>
<stop offset="1" stop-color="#939294"/>
</radialGradient>
<radialGradient id="paint23_radial_855_42112" cx="0" cy="0" r="1" gradientUnits="userSpaceOnUse" gradientTransform="translate(30.1005 114.157) rotate(-72.3988) scale(25.7847 45.9612)">
<stop stop-color="#AEA7CF"/>
<stop offset="1" stop-color="#A9A9AA"/>
</radialGradient>
<radialGradient id="paint24_radial_855_42112" cx="0" cy="0" r="1" gradientUnits="userSpaceOnUse" gradientTransform="translate(31.6258 98.5628) rotate(-146.824) scale(16.4168 17.4626)">
<stop stop-color="#B2AEB8"/>
<stop offset="1" stop-color="#B2AEB8" stop-opacity="0"/>
</radialGradient>
<linearGradient id="paint25_linear_855_42112" x1="50.2704" y1="118.564" x2="42.3892" y2="114.75" gradientUnits="userSpaceOnUse">
<stop stop-color="#BAB2BD"/>
<stop offset="1" stop-color="#BAB2BD" stop-opacity="0"/>
</linearGradient>
<radialGradient id="paint26_radial_855_42112" cx="0" cy="0" r="1" gradientUnits="userSpaceOnUse" gradientTransform="translate(60.9672 75.289) rotate(141.238) scale(35.1919)">
<stop offset="0.123342" stop-color="#B3B2B3"/>
<stop offset="1" stop-color="#9D9CA1"/>
</radialGradient>
<radialGradient id="paint27_radial_855_42112" cx="0" cy="0" r="1" gradientUnits="userSpaceOnUse" gradientTransform="translate(59.9653 72.6389) rotate(115.083) scale(30.2389)">
<stop offset="0.45905" stop-color="#A59FB8" stop-opacity="0"/>
<stop offset="1" stop-color="#A59FB8"/>
</radialGradient>
<radialGradient id="paint28_radial_855_42112" cx="0" cy="0" r="1" gradientUnits="userSpaceOnUse" gradientTransform="translate(56.0103 84.9309) rotate(-130.711) scale(6.55374 12.8698)">
<stop offset="0.275354" stop-color="#A2A1A2"/>
<stop offset="1" stop-color="#A2A1A2" stop-opacity="0"/>
</radialGradient>
<linearGradient id="paint29_linear_855_42112" x1="93.5692" y1="89.0463" x2="89.4974" y2="114.247" gradientUnits="userSpaceOnUse">
<stop stop-color="#C7C5CB"/>
<stop offset="1" stop-color="#C2B0DB"/>
</linearGradient>
<radialGradient id="paint30_radial_855_42112" cx="0" cy="0" r="1" gradientUnits="userSpaceOnUse" gradientTransform="translate(108.872 94.9428) rotate(142.951) scale(17.9422 14.2193)">
<stop stop-color="#D1D0D3"/>
<stop offset="1" stop-color="#D1D0D3" stop-opacity="0"/>
</radialGradient>
<radialGradient id="paint31_radial_855_42112" cx="0" cy="0" r="1" gradientUnits="userSpaceOnUse" gradientTransform="translate(84.5841 83.9922) rotate(59.3936) scale(11.5813 17.1333)">
<stop stop-color="#B0B0B1"/>
<stop offset="1" stop-color="#B0B0B1" stop-opacity="0"/>
</radialGradient>
<radialGradient id="paint32_radial_855_42112" cx="0" cy="0" r="1" gradientUnits="userSpaceOnUse" gradientTransform="translate(96.3723 89.4625) rotate(107.199) scale(28.2857 37.7031)">
<stop stop-color="#C0AAC5" stop-opacity="0"/>
<stop offset="0.717929" stop-color="#C0AAC5" stop-opacity="0"/>
<stop offset="0.966226" stop-color="#C0AAC5"/>
</radialGradient>
<radialGradient id="paint33_radial_855_42112" cx="0" cy="0" r="1" gradientUnits="userSpaceOnUse" gradientTransform="translate(87.5491 95.7122) rotate(12.8972) scale(10.1829 18.0648)">
<stop stop-color="#D0CED4"/>
<stop offset="1" stop-color="#C1BDCB" stop-opacity="0"/>
</radialGradient>
<linearGradient id="paint34_linear_855_42112" x1="-nan" y1="-nan" x2="-nan" y2="-nan" gradientUnits="userSpaceOnUse">
<stop stop-color="#FF9A58" stop-opacity="0"/>
<stop offset="0.193237" stop-color="#FF9A58"/>
<stop offset="0.869565" stop-color="#FFA163"/>
<stop offset="1" stop-color="#FF9A58" stop-opacity="0"/>
</linearGradient>
<radialGradient id="paint35_radial_855_42112" cx="0" cy="0" r="1" gradientUnits="userSpaceOnUse" gradientTransform="translate(83.1135 89.6765) rotate(172.157) scale(34.1569 34.7054)">
<stop offset="0.0892594" stop-color="#CFCDD4"/>
<stop offset="1" stop-color="#9E9EA0"/>
</radialGradient>
<radialGradient id="paint36_radial_855_42112" cx="0" cy="0" r="1" gradientUnits="userSpaceOnUse" gradientTransform="translate(67.4561 119.098) rotate(-83.2918) scale(33.6517 71.3547)">
<stop offset="0.250302" stop-color="#BEB1DF"/>
<stop offset="0.920984" stop-color="#BEB1DF" stop-opacity="0"/>
</radialGradient>
<radialGradient id="paint37_radial_855_42112" cx="0" cy="0" r="1" gradientUnits="userSpaceOnUse" gradientTransform="translate(61.0795 102.973) rotate(-17.941) scale(33.7153 36.9964)">
<stop offset="0.720703" stop-color="#D0CED4" stop-opacity="0"/>
<stop offset="0.907185" stop-color="#D0CED4"/>
</radialGradient>
<radialGradient id="paint38_radial_855_42112" cx="0" cy="0" r="1" gradientUnits="userSpaceOnUse" gradientTransform="translate(70.0868 85.5105) rotate(94.2892) scale(36.8664 40.7294)">
<stop offset="0.694075" stop-color="#C0AAC5" stop-opacity="0"/>
<stop offset="0.966226" stop-color="#C0AAC5"/>
</radialGradient>
<linearGradient id="paint39_linear_855_42112" x1="158.796" y1="1.42073" x2="158.796" y2="102.866" gradientUnits="userSpaceOnUse">
<stop stop-color="#FF7A00"/>
<stop offset="1" stop-color="#DF1400"/>
</linearGradient>
<linearGradient id="paint40_linear_855_42112" x1="164.174" y1="60.16" x2="164.174" y2="263.075" gradientUnits="userSpaceOnUse">
<stop stop-color="#6A4C99"/>
<stop offset="1" stop-color="#352E49"/>
</linearGradient>
<clipPath id="clip0_855_42112">
<rect width="256" height="256" fill="white"/>
</clipPath>
</defs>
</svg>
