<svg width="256" height="256" viewBox="0 0 256 256" fill="none" xmlns="http://www.w3.org/2000/svg">
<g clip-path="url(#clip0_512_154)">
<g clip-path="url(#clip1_512_154)">
<g filter="url(#filter0_b_512_154)">
<mask id="path-2-inside-1_512_154" fill="white">
<path d="M0 40C0 17.9086 17.9086 0 40 0H213.44C235.531 0 253.44 17.9086 253.44 40V213.44C253.44 235.531 235.531 253.44 213.44 253.44H40C17.9086 253.44 0 235.531 0 213.44V40Z"/>
</mask>
<path d="M0 40C0 17.9086 17.9086 0 40 0H213.44C235.531 0 253.44 17.9086 253.44 40V213.44C253.44 235.531 235.531 253.44 213.44 253.44H40C17.9086 253.44 0 235.531 0 213.44V40Z" fill="white"/>
<path d="M0 40C0 17.9086 17.9086 0 40 0H213.44C235.531 0 253.44 17.9086 253.44 40V213.44C253.44 235.531 235.531 253.44 213.44 253.44H40C17.9086 253.44 0 235.531 0 213.44V40Z" fill="url(#paint0_linear_512_154)" fill-opacity="0.7"/>
<path d="M0 40C0 17.9086 17.9086 0 40 0H213.44C235.531 0 253.44 17.9086 253.44 40V213.44C253.44 235.531 235.531 253.44 213.44 253.44H40C17.9086 253.44 0 235.531 0 213.44V40Z" fill="url(#paint1_angular_512_154)" fill-opacity="0.2"/>
<path d="M-1 40C-1 17.3563 17.3563 -1 40 -1H214.44C237.084 -1 255.44 17.3563 255.44 40H251.44C251.44 18.4609 234.427 1 213.44 1H40C18.4609 1 1 18.4609 1 40H-1ZM255.44 215.44C255.44 238.636 236.636 257.44 213.44 257.44H40C17.3563 257.44 -1 239.084 -1 216.44L1 213.44C1 233.322 18.4609 249.44 40 249.44H213.44C234.427 249.44 251.44 233.322 251.44 213.44L255.44 215.44ZM40 257.44C17.3563 257.44 -1 239.084 -1 216.44V40C-1 17.3563 17.3563 -1 40 -1V1C18.4609 1 1 18.4609 1 40V213.44C1 233.322 18.4609 249.44 40 249.44V257.44ZM214.44 -1C237.084 -1 255.44 17.3563 255.44 40V215.44C255.44 238.636 236.636 257.44 213.44 257.44V249.44C234.427 249.44 251.44 233.322 251.44 213.44V40C251.44 18.4609 234.427 1 213.44 1L214.44 -1Z" fill="url(#paint2_linear_512_154)" fill-opacity="0.6" mask="url(#path-2-inside-1_512_154)"/>
</g>
<g filter="url(#filter1_d_512_154)">
<path d="M58.1938 130.952C61.427 130.933 64.4092 132.692 65.9566 135.531L69.1474 141.384C69.9724 142.897 72.1391 142.914 72.9875 141.414L76.362 135.445C77.9753 132.591 80.9927 130.819 84.2713 130.799L86.0508 130.788C90.3476 130.762 94.2653 133.245 96.0755 137.142L150.68 254.676C154.061 261.954 148.747 270.282 140.722 270.282H-12.8647C-20.8845 270.282 -26.1986 261.965 -22.8276 254.687L31.9882 136.358C33.4778 133.142 36.6927 131.075 40.2378 131.055L58.1938 130.952Z" fill="url(#paint3_linear_512_154)"/>
<path d="M58.1938 130.952C61.427 130.933 64.4092 132.692 65.9566 135.531L69.1474 141.384C69.9724 142.897 72.1391 142.914 72.9875 141.414L76.362 135.445C77.9753 132.591 80.9927 130.819 84.2713 130.799L86.0508 130.788C90.3476 130.762 94.2653 133.245 96.0755 137.142L150.68 254.676C154.061 261.954 148.747 270.282 140.722 270.282H-12.8647C-20.8845 270.282 -26.1986 261.965 -22.8276 254.687L31.9882 136.358C33.4778 133.142 36.6927 131.075 40.2378 131.055L58.1938 130.952Z" fill="url(#paint4_linear_512_154)"/>
<path d="M58.1938 130.952C61.427 130.933 64.4092 132.692 65.9566 135.531L69.1474 141.384C69.9724 142.897 72.1391 142.914 72.9875 141.414L76.362 135.445C77.9753 132.591 80.9927 130.819 84.2713 130.799L86.0508 130.788C90.3476 130.762 94.2653 133.245 96.0755 137.142L150.68 254.676C154.061 261.954 148.747 270.282 140.722 270.282H-12.8647C-20.8845 270.282 -26.1986 261.965 -22.8276 254.687L31.9882 136.358C33.4778 133.142 36.6927 131.075 40.2378 131.055L58.1938 130.952Z" fill="url(#paint5_linear_512_154)"/>
<path d="M75.4902 178.211L81.896 201.334C83.6528 207.676 89.4246 212.066 96.0053 212.066H96.5338C102.483 212.066 107.841 215.666 110.088 221.175L130.126 270.282H140.722C148.747 270.282 154.061 261.954 150.68 254.676L96.0755 137.142C94.2653 133.245 90.3484 130.762 86.0515 130.788L84.272 130.799C80.9934 130.819 77.9761 132.591 76.362 135.445L75.4902 136.987V178.211Z" fill="url(#paint6_linear_512_154)"/>
<path d="M75.4902 178.211L81.896 201.334C83.6528 207.676 89.4246 212.066 96.0053 212.066H96.5338C102.483 212.066 107.841 215.666 110.088 221.175L130.126 270.282H140.722C148.747 270.282 154.061 261.954 150.68 254.676L96.0755 137.142C94.2653 133.245 90.3484 130.762 86.0515 130.788L84.272 130.799C80.9934 130.819 77.9761 132.591 76.362 135.445L75.4902 136.987V178.211Z" fill="url(#paint7_linear_512_154)"/>
<g filter="url(#filter2_f_512_154)">
<path d="M104.485 171.597C104.485 169.286 103.938 167.009 102.888 164.95L93.0574 145.658C91.3182 142.246 87.5557 140.072 83.4287 140.095L81.7195 140.105C78.5704 140.122 75.6725 141.674 74.1228 144.173L70.8815 149.399C70.0668 150.713 67.9857 150.698 67.1937 149.373L64.1288 144.248C62.6421 141.763 59.7778 140.222 56.6727 140.239L39.426 140.329C36.0207 140.346 32.9332 142.156 31.5021 144.973L21.877 163.913C20.4299 166.762 19.6752 169.912 19.6752 173.107C19.6752 176.647 22.8235 179.516 26.706 179.516H26.9256C30.8089 179.516 33.9565 182.386 33.9565 185.926V236.101C33.9565 239.641 37.1048 242.51 40.9874 242.51C44.8706 242.51 48.0182 239.641 48.0182 236.101V188.991C48.0182 185.426 51.1885 182.535 55.0996 182.535C59.0099 182.535 62.181 185.426 62.181 188.991V198.245C62.181 201.785 65.3285 204.654 69.2111 204.654C73.0943 204.654 76.2419 201.785 76.2419 198.245V181.887C76.2419 178.572 79.1897 175.885 82.8256 175.885C86.1108 175.885 90.2327 178.093 90.6858 181.058L90.86 185.826C91.3775 189.214 94.5551 191.735 98.3059 191.735C102.459 191.735 104.485 188.666 104.485 184.881V171.597Z" fill="#2E1C46"/>
</g>
<g filter="url(#filter3_f_512_154)">
<path d="M101.368 169.6L140.886 254.503" stroke="#715594" stroke-width="0.5" stroke-linecap="round"/>
</g>
<path d="M35.8027 94.7166C34.7918 94.7166 33.9727 95.5359 33.9727 96.5466V122.367C33.9727 123.377 34.7918 124.197 35.8027 124.197H38.4613C40.4831 124.197 42.1213 125.835 42.1213 127.857V160.482C42.1213 161.493 42.9411 162.312 43.9513 162.312H84.2977C85.3078 162.312 86.1277 161.493 86.1277 160.482V127.857C86.1277 125.835 87.7659 124.197 89.7877 124.197H96.1927C97.2028 124.197 98.0227 123.377 98.0227 122.367V96.5466C98.0227 95.5359 97.2028 94.7166 96.1927 94.7166H35.8027Z" fill="url(#paint8_radial_512_154)"/>
<path d="M35.8027 94.7166C34.7918 94.7166 33.9727 95.5359 33.9727 96.5466V122.367C33.9727 123.377 34.7918 124.197 35.8027 124.197H38.4613C40.4831 124.197 42.1213 125.835 42.1213 127.857V160.482C42.1213 161.493 42.9411 162.312 43.9513 162.312H84.2977C85.3078 162.312 86.1277 161.493 86.1277 160.482V127.857C86.1277 125.835 87.7659 124.197 89.7877 124.197H96.1927C97.2028 124.197 98.0227 123.377 98.0227 122.367V96.5466C98.0227 95.5359 97.2028 94.7166 96.1927 94.7166H35.8027Z" fill="url(#paint9_radial_512_154)"/>
<g filter="url(#filter4_d_512_154)">
<path d="M107.973 165.985C107.973 163.854 107.508 161.749 106.61 159.816L96.0755 137.142C94.2652 133.245 90.3483 130.762 86.0515 130.788L84.272 130.799C80.9934 130.819 77.976 132.591 76.362 135.445L72.9875 141.414C72.1391 142.914 69.9731 142.897 69.1481 141.384L65.9573 135.531C64.4099 132.692 61.4277 130.933 58.1945 130.952L40.2378 131.055C36.6927 131.075 33.4785 133.142 31.9881 136.358L21.7094 158.547C20.3698 161.44 19.6752 164.59 19.6752 167.777V168.489C19.6752 172.532 22.9523 175.809 26.9952 175.809H27.2243C31.2671 175.809 34.5443 179.086 34.5443 183.129V240.431C34.5443 244.473 37.8215 247.751 41.8643 247.751C45.9071 247.751 49.1843 244.473 49.1843 240.431V189.472C49.1843 185.4 52.4849 182.1 56.5563 182.1C60.6284 182.1 63.929 185.4 63.929 189.472V197.197C63.929 201.24 67.2061 204.517 71.249 204.517C75.2918 204.517 78.569 201.24 78.569 197.197V182.663C78.569 178.877 81.6375 175.809 85.4234 175.809C88.8433 175.809 91.7398 178.33 92.212 181.717L92.3928 183.015C92.9315 186.883 96.2394 189.762 100.145 189.762C104.469 189.762 107.973 186.258 107.973 181.935V165.985Z" fill="url(#paint10_linear_512_154)"/>
</g>
<path d="M107.973 165.985C107.973 163.854 107.508 161.749 106.61 159.816L96.0755 137.142C94.2652 133.245 90.3483 130.762 86.0515 130.788L84.272 130.799C80.9934 130.819 77.976 132.591 76.362 135.445L72.9875 141.414C72.1391 142.914 69.9731 142.897 69.1481 141.384L65.9573 135.531C64.4099 132.692 61.4277 130.933 58.1945 130.952L40.2378 131.055C36.6927 131.075 33.4785 133.142 31.9881 136.358L21.7094 158.547C20.3698 161.44 19.6752 164.59 19.6752 167.777V168.489C19.6752 172.532 22.9523 175.809 26.9952 175.809H27.2243C31.2671 175.809 34.5443 179.086 34.5443 183.129V240.431C34.5443 244.473 37.8215 247.751 41.8643 247.751C45.9071 247.751 49.1843 244.473 49.1843 240.431V189.472C49.1843 185.4 52.4849 182.1 56.5563 182.1C60.6284 182.1 63.929 185.4 63.929 189.472V197.197C63.929 201.24 67.2061 204.517 71.249 204.517C75.2918 204.517 78.569 201.24 78.569 197.197V182.663C78.569 178.877 81.6375 175.809 85.4234 175.809C88.8433 175.809 91.7398 178.33 92.212 181.717L92.3928 183.015C92.9315 186.883 96.2394 189.762 100.145 189.762C104.469 189.762 107.973 186.258 107.973 181.935V165.985Z" fill="url(#paint11_radial_512_154)"/>
<path d="M107.973 165.985C107.973 163.854 107.508 161.749 106.61 159.816L96.0755 137.142C94.2652 133.245 90.3483 130.762 86.0515 130.788L84.272 130.799C80.9934 130.819 77.976 132.591 76.362 135.445L72.9875 141.414C72.1391 142.914 69.9731 142.897 69.1481 141.384L65.9573 135.531C64.4099 132.692 61.4277 130.933 58.1945 130.952L40.2378 131.055C36.6927 131.075 33.4785 133.142 31.9881 136.358L21.7094 158.547C20.3698 161.44 19.6752 164.59 19.6752 167.777V168.489C19.6752 172.532 22.9523 175.809 26.9952 175.809H27.2243C31.2671 175.809 34.5443 179.086 34.5443 183.129V240.431C34.5443 244.473 37.8215 247.751 41.8643 247.751C45.9071 247.751 49.1843 244.473 49.1843 240.431V189.472C49.1843 185.4 52.4849 182.1 56.5563 182.1C60.6284 182.1 63.929 185.4 63.929 189.472V197.197C63.929 201.24 67.2061 204.517 71.249 204.517C75.2918 204.517 78.569 201.24 78.569 197.197V182.663C78.569 178.877 81.6375 175.809 85.4234 175.809C88.8433 175.809 91.7398 178.33 92.212 181.717L92.3928 183.015C92.9315 186.883 96.2394 189.762 100.145 189.762C104.469 189.762 107.973 186.258 107.973 181.935V165.985Z" fill="url(#paint12_radial_512_154)"/>
<path d="M107.973 165.985C107.973 163.854 107.508 161.749 106.61 159.816L96.0755 137.142C94.2652 133.245 90.3483 130.762 86.0515 130.788L84.272 130.799C80.9934 130.819 77.976 132.591 76.362 135.445L72.9875 141.414C72.1391 142.914 69.9731 142.897 69.1481 141.384L65.9573 135.531C64.4099 132.692 61.4277 130.933 58.1945 130.952L40.2378 131.055C36.6927 131.075 33.4785 133.142 31.9881 136.358L21.7094 158.547C20.3698 161.44 19.6752 164.59 19.6752 167.777V168.489C19.6752 172.532 22.9523 175.809 26.9952 175.809H27.2243C31.2671 175.809 34.5443 179.086 34.5443 183.129V240.431C34.5443 244.473 37.8215 247.751 41.8643 247.751C45.9071 247.751 49.1843 244.473 49.1843 240.431V189.472C49.1843 185.4 52.4849 182.1 56.5563 182.1C60.6284 182.1 63.929 185.4 63.929 189.472V197.197C63.929 201.24 67.2061 204.517 71.249 204.517C75.2918 204.517 78.569 201.24 78.569 197.197V182.663C78.569 178.877 81.6375 175.809 85.4234 175.809C88.8433 175.809 91.7398 178.33 92.212 181.717L92.3928 183.015C92.9315 186.883 96.2394 189.762 100.145 189.762C104.469 189.762 107.973 186.258 107.973 181.935V165.985Z" fill="url(#paint13_radial_512_154)"/>
<path d="M107.973 165.985C107.973 163.854 107.508 161.749 106.61 159.816L96.0755 137.142C94.2652 133.245 90.3483 130.762 86.0515 130.788L84.272 130.799C80.9934 130.819 77.976 132.591 76.362 135.445L72.9875 141.414C72.1391 142.914 69.9731 142.897 69.1481 141.384L65.9573 135.531C64.4099 132.692 61.4277 130.933 58.1945 130.952L40.2378 131.055C36.6927 131.075 33.4785 133.142 31.9881 136.358L21.7094 158.547C20.3698 161.44 19.6752 164.59 19.6752 167.777V168.489C19.6752 172.532 22.9523 175.809 26.9952 175.809H27.2243C31.2671 175.809 34.5443 179.086 34.5443 183.129V240.431C34.5443 244.473 37.8215 247.751 41.8643 247.751C45.9071 247.751 49.1843 244.473 49.1843 240.431V189.472C49.1843 185.4 52.4849 182.1 56.5563 182.1C60.6284 182.1 63.929 185.4 63.929 189.472V197.197C63.929 201.24 67.2061 204.517 71.249 204.517C75.2918 204.517 78.569 201.24 78.569 197.197V182.663C78.569 178.877 81.6375 175.809 85.4234 175.809C88.8433 175.809 91.7398 178.33 92.212 181.717L92.3928 183.015C92.9315 186.883 96.2394 189.762 100.145 189.762C104.469 189.762 107.973 186.258 107.973 181.935V165.985Z" fill="url(#paint14_radial_512_154)"/>
<path d="M107.973 165.985C107.973 163.854 107.508 161.749 106.61 159.816L96.0755 137.142C94.2652 133.245 90.3483 130.762 86.0515 130.788L84.272 130.799C80.9934 130.819 77.976 132.591 76.362 135.445L72.9875 141.414C72.1391 142.914 69.9731 142.897 69.1481 141.384L65.9573 135.531C64.4099 132.692 61.4277 130.933 58.1945 130.952L40.2378 131.055C36.6927 131.075 33.4785 133.142 31.9881 136.358L21.7094 158.547C20.3698 161.44 19.6752 164.59 19.6752 167.777V168.489C19.6752 172.532 22.9523 175.809 26.9952 175.809H27.2243C31.2671 175.809 34.5443 179.086 34.5443 183.129V240.431C34.5443 244.473 37.8215 247.751 41.8643 247.751C45.9071 247.751 49.1843 244.473 49.1843 240.431V189.472C49.1843 185.4 52.4849 182.1 56.5563 182.1C60.6284 182.1 63.929 185.4 63.929 189.472V197.197C63.929 201.24 67.2061 204.517 71.249 204.517C75.2918 204.517 78.569 201.24 78.569 197.197V182.663C78.569 178.877 81.6375 175.809 85.4234 175.809C88.8433 175.809 91.7398 178.33 92.212 181.717L92.3928 183.015C92.9315 186.883 96.2394 189.762 100.145 189.762C104.469 189.762 107.973 186.258 107.973 181.935V165.985Z" fill="url(#paint15_radial_512_154)"/>
<path d="M71.0872 94.7165C78.9516 94.7165 85.3269 88.3412 85.3269 80.4768C85.3269 72.6125 78.9516 66.2372 71.0872 66.2372C63.2228 66.2372 56.8475 72.6125 56.8475 80.4768C56.8475 88.3412 63.2228 94.7165 71.0872 94.7165Z" fill="url(#paint16_radial_512_154)"/>
<path d="M71.0872 94.7165C78.9516 94.7165 85.3269 88.3412 85.3269 80.4768C85.3269 72.6125 78.9516 66.2372 71.0872 66.2372C63.2228 66.2372 56.8475 72.6125 56.8475 80.4768C56.8475 88.3412 63.2228 94.7165 71.0872 94.7165Z" fill="url(#paint17_radial_512_154)"/>
<path d="M101.655 95.0596C100.632 95.0596 99.8196 94.2166 99.7054 93.1997C98.9017 86.0277 92.7844 80.3624 85.3553 80.3624C77.3802 80.3624 70.9152 86.8274 70.9152 94.8023C70.9152 102.777 77.3802 109.242 85.3553 109.242C86.0456 109.242 86.7249 109.194 87.3895 109.1C88.6222 108.926 89.8447 109.809 89.8447 111.054V122.367C89.8447 123.377 90.6638 124.197 91.6747 124.197H107.358C115.404 124.197 121.927 117.674 121.927 109.628C121.927 101.582 115.404 95.0596 107.358 95.0596H101.655Z" fill="url(#paint18_linear_512_154)"/>
<path d="M101.655 95.0596C100.632 95.0596 99.8196 94.2166 99.7054 93.1997C98.9017 86.0277 92.7844 80.3624 85.3553 80.3624C77.3802 80.3624 70.9152 86.8274 70.9152 94.8023C70.9152 102.777 77.3802 109.242 85.3553 109.242C86.0456 109.242 86.7249 109.194 87.3895 109.1C88.6222 108.926 89.8447 109.809 89.8447 111.054V122.367C89.8447 123.377 90.6638 124.197 91.6747 124.197H107.358C115.404 124.197 121.927 117.674 121.927 109.628C121.927 101.582 115.404 95.0596 107.358 95.0596H101.655Z" fill="url(#paint19_radial_512_154)"/>
<path d="M101.655 95.0596C100.632 95.0596 99.8196 94.2166 99.7054 93.1997C98.9017 86.0277 92.7844 80.3624 85.3553 80.3624C77.3802 80.3624 70.9152 86.8274 70.9152 94.8023C70.9152 102.777 77.3802 109.242 85.3553 109.242C86.0456 109.242 86.7249 109.194 87.3895 109.1C88.6222 108.926 89.8447 109.809 89.8447 111.054V122.367C89.8447 123.377 90.6638 124.197 91.6747 124.197H107.358C115.404 124.197 121.927 117.674 121.927 109.628C121.927 101.582 115.404 95.0596 107.358 95.0596H101.655Z" fill="url(#paint20_radial_512_154)"/>
<path d="M101.655 95.0596C100.632 95.0596 99.8196 94.2166 99.7054 93.1997C98.9017 86.0277 92.7844 80.3624 85.3553 80.3624C77.3802 80.3624 70.9152 86.8274 70.9152 94.8023C70.9152 102.777 77.3802 109.242 85.3553 109.242C86.0456 109.242 86.7249 109.194 87.3895 109.1C88.6222 108.926 89.8447 109.809 89.8447 111.054V122.367C89.8447 123.377 90.6638 124.197 91.6747 124.197H107.358C115.404 124.197 121.927 117.674 121.927 109.628C121.927 101.582 115.404 95.0596 107.358 95.0596H101.655Z" fill="url(#paint21_linear_512_154)"/>
<path d="M85.3554 109.242C93.3303 109.242 99.7953 102.777 99.7953 94.8023C99.7953 86.8274 93.3303 80.3624 85.3554 80.3624C77.3805 80.3624 70.9155 86.8274 70.9155 94.8023C70.9155 102.777 77.3805 109.242 85.3554 109.242Z" fill="url(#paint22_radial_512_154)"/>
<path d="M33.4273 95.0596C34.4507 95.0596 35.2624 94.2161 35.3781 93.1995C36.1862 86.1007 42.3014 80.8771 49.7275 80.8771C57.7026 80.8771 63.1948 87.4537 63.1948 94.8023C63.1948 102.777 57.7026 109.242 49.7275 109.242C49.0372 109.242 48.3579 109.194 47.6933 109.1C46.4606 108.926 45.2381 109.809 45.2381 111.054V122.367C45.2381 123.377 44.419 124.197 43.4081 124.197H27.7243C19.6789 124.197 13.1561 117.674 13.1561 109.628C13.1561 101.582 19.6789 95.0596 27.7243 95.0596H33.4273Z" fill="url(#paint23_radial_512_154)"/>
<path d="M33.4273 95.0596C34.4507 95.0596 35.2624 94.2161 35.3781 93.1995C36.1862 86.1007 42.3014 80.8771 49.7275 80.8771C57.7026 80.8771 63.1948 87.4537 63.1948 94.8023C63.1948 102.777 57.7026 109.242 49.7275 109.242C49.0372 109.242 48.3579 109.194 47.6933 109.1C46.4606 108.926 45.2381 109.809 45.2381 111.054V122.367C45.2381 123.377 44.419 124.197 43.4081 124.197H27.7243C19.6789 124.197 13.1561 117.674 13.1561 109.628C13.1561 101.582 19.6789 95.0596 27.7243 95.0596H33.4273Z" fill="url(#paint24_radial_512_154)"/>
<path d="M33.4273 95.0596C34.4507 95.0596 35.2624 94.2161 35.3781 93.1995C36.1862 86.1007 42.3014 80.8771 49.7275 80.8771C57.7026 80.8771 63.1948 87.4537 63.1948 94.8023C63.1948 102.777 57.7026 109.242 49.7275 109.242C49.0372 109.242 48.3579 109.194 47.6933 109.1C46.4606 108.926 45.2381 109.809 45.2381 111.054V122.367C45.2381 123.377 44.419 124.197 43.4081 124.197H27.7243C19.6789 124.197 13.1561 117.674 13.1561 109.628C13.1561 101.582 19.6789 95.0596 27.7243 95.0596H33.4273Z" fill="url(#paint25_linear_512_154)"/>
<path d="M49.4698 109.255C57.3184 109.255 63.6809 102.892 63.6809 95.0436C63.6809 87.1951 57.3184 80.8325 49.4698 80.8325C41.6212 80.8325 35.2587 87.1951 35.2587 95.0436C35.2587 102.892 41.6212 109.255 49.4698 109.255Z" fill="url(#paint26_radial_512_154)"/>
<path d="M49.4698 109.255C57.3184 109.255 63.6809 102.892 63.6809 95.0436C63.6809 87.1951 57.3184 80.8325 49.4698 80.8325C41.6212 80.8325 35.2587 87.1951 35.2587 95.0436C35.2587 102.892 41.6212 109.255 49.4698 109.255Z" fill="url(#paint27_radial_512_154)"/>
<path d="M49.4698 109.255C57.3184 109.255 63.6809 102.892 63.6809 95.0436C63.6809 87.1951 57.3184 80.8325 49.4698 80.8325C41.6212 80.8325 35.2587 87.1951 35.2587 95.0436C35.2587 102.892 41.6212 109.255 49.4698 109.255Z" fill="url(#paint28_radial_512_154)"/>
<path d="M82.527 122.161C80.6692 121.043 78.1584 121.066 76.4448 122.393C72.9246 125.119 68.5062 126.741 63.7102 126.741C52.2134 126.741 42.8936 117.422 42.8936 105.925C42.8936 94.4288 52.2134 85.109 63.7102 85.109C70.6561 85.109 76.8071 88.5111 80.5886 93.7397C81.8594 95.4969 84.2625 96.2286 86.3627 95.688C87.5214 95.3898 88.7358 95.2312 89.9875 95.2312C97.9941 95.2312 104.485 101.722 104.485 109.728C104.485 117.735 97.9941 124.225 89.9875 124.225C87.2586 124.225 84.7061 123.471 82.527 122.161Z" fill="url(#paint29_linear_512_154)"/>
<path d="M82.527 122.161C80.6692 121.043 78.1584 121.066 76.4448 122.393C72.9246 125.119 68.5062 126.741 63.7102 126.741C52.2134 126.741 42.8936 117.422 42.8936 105.925C42.8936 94.4288 52.2134 85.109 63.7102 85.109C70.6561 85.109 76.8071 88.5111 80.5886 93.7397C81.8594 95.4969 84.2625 96.2286 86.3627 95.688C87.5214 95.3898 88.7358 95.2312 89.9875 95.2312C97.9941 95.2312 104.485 101.722 104.485 109.728C104.485 117.735 97.9941 124.225 89.9875 124.225C87.2586 124.225 84.7061 123.471 82.527 122.161Z" fill="url(#paint30_radial_512_154)"/>
<path d="M82.527 122.161C80.6692 121.043 78.1584 121.066 76.4448 122.393C72.9246 125.119 68.5062 126.741 63.7102 126.741C52.2134 126.741 42.8936 117.422 42.8936 105.925C42.8936 94.4288 52.2134 85.109 63.7102 85.109C70.6561 85.109 76.8071 88.5111 80.5886 93.7397C81.8594 95.4969 84.2625 96.2286 86.3627 95.688C87.5214 95.3898 88.7358 95.2312 89.9875 95.2312C97.9941 95.2312 104.485 101.722 104.485 109.728C104.485 117.735 97.9941 124.225 89.9875 124.225C87.2586 124.225 84.7061 123.471 82.527 122.161Z" fill="url(#paint31_radial_512_154)"/>
<path d="M82.527 122.161C80.6692 121.043 78.1584 121.066 76.4448 122.393C72.9246 125.119 68.5062 126.741 63.7102 126.741C52.2134 126.741 42.8936 117.422 42.8936 105.925C42.8936 94.4288 52.2134 85.109 63.7102 85.109C70.6561 85.109 76.8071 88.5111 80.5886 93.7397C81.8594 95.4969 84.2625 96.2286 86.3627 95.688C87.5214 95.3898 88.7358 95.2312 89.9875 95.2312C97.9941 95.2312 104.485 101.722 104.485 109.728C104.485 117.735 97.9941 124.225 89.9875 124.225C87.2586 124.225 84.7061 123.471 82.527 122.161Z" fill="url(#paint32_radial_512_154)"/>
<path d="M82.527 122.161C80.6692 121.043 78.1584 121.066 76.4448 122.393C72.9246 125.119 68.5062 126.741 63.7102 126.741C52.2134 126.741 42.8936 117.422 42.8936 105.925C42.8936 94.4288 52.2134 85.109 63.7102 85.109C70.6561 85.109 76.8071 88.5111 80.5886 93.7397C81.8594 95.4969 84.2625 96.2286 86.3627 95.688C87.5214 95.3898 88.7358 95.2312 89.9875 95.2312C97.9941 95.2312 104.485 101.722 104.485 109.728C104.485 117.735 97.9941 124.225 89.9875 124.225C87.2586 124.225 84.7061 123.471 82.527 122.161Z" fill="url(#paint33_radial_512_154)"/>
<g filter="url(#filter5_f_512_154)">
<path d="M42.8936 241.315V171.739" stroke="url(#paint34_linear_512_154)" stroke-width="0.5" stroke-linecap="round"/>
</g>
<path d="M63.6816 126.827C75.2255 126.827 84.5836 117.469 84.5836 105.925C84.5836 94.3814 75.2255 85.0232 63.6816 85.0232C52.1377 85.0232 42.7795 94.3814 42.7795 105.925C42.7795 117.469 52.1377 126.827 63.6816 126.827Z" fill="url(#paint35_radial_512_154)"/>
<path d="M63.6816 126.827C75.2255 126.827 84.5836 117.469 84.5836 105.925C84.5836 94.3814 75.2255 85.0232 63.6816 85.0232C52.1377 85.0232 42.7795 94.3814 42.7795 105.925C42.7795 117.469 52.1377 126.827 63.6816 126.827Z" fill="url(#paint36_radial_512_154)"/>
<path d="M63.6816 126.827C75.2255 126.827 84.5836 117.469 84.5836 105.925C84.5836 94.3814 75.2255 85.0232 63.6816 85.0232C52.1377 85.0232 42.7795 94.3814 42.7795 105.925C42.7795 117.469 52.1377 126.827 63.6816 126.827Z" fill="url(#paint37_radial_512_154)"/>
<path d="M63.6816 126.827C75.2255 126.827 84.5836 117.469 84.5836 105.925C84.5836 94.3814 75.2255 85.0232 63.6816 85.0232C52.1377 85.0232 42.7795 94.3814 42.7795 105.925C42.7795 117.469 52.1377 126.827 63.6816 126.827Z" fill="url(#paint38_radial_512_154)"/>
</g>
</g>
<rect x="84.48" y="15.36" width="148.074" height="65.28" rx="10" fill="url(#paint39_linear_512_154)"/>
<g filter="url(#filter6_d_512_154)">
<path d="M112.139 34.1989L112.025 43.198H114.318C115.884 43.1598 117.279 43.1407 118.502 43.1407C119.725 43.1407 121.081 43.1598 122.572 43.198H122.858C123.317 43.198 123.756 43.2171 124.176 43.2553C124.635 43.2553 125.074 43.2553 125.495 43.2553C125.953 43.2935 126.393 43.3699 126.813 43.4846C127.233 43.561 127.654 43.6565 128.074 43.7712C128.724 44.0004 129.259 44.3444 129.679 44.8029C130.061 45.2997 130.252 45.8538 130.252 46.4652C130.252 46.6562 130.252 46.8855 130.252 47.153C130.252 47.3823 130.214 47.5924 130.138 47.7835C130.061 48.2038 129.813 48.586 129.392 48.9299C129.201 49.1974 128.838 49.3884 128.303 49.5031C127.807 49.6559 127.31 49.7515 126.813 49.7897C126.278 49.9043 125.743 49.9616 125.208 49.9616H122.514L111.91 50.0189L111.796 61.2535L123.202 61.3681H125.896C126.202 61.3681 126.488 61.3681 126.756 61.3681C127.023 61.3681 127.272 61.3872 127.501 61.4254C127.807 61.5019 128.074 61.5592 128.303 61.5974C128.571 61.5974 128.819 61.6356 129.049 61.712C129.507 61.8649 129.889 62.075 130.195 62.3425C130.577 62.7247 130.825 63.1259 130.94 63.5462C130.978 63.7373 130.997 63.9475 130.997 64.1767C131.036 64.3678 131.036 64.578 130.997 64.8073C130.997 65.4187 130.806 65.9727 130.424 66.4695C129.966 67.0045 129.431 67.3484 128.819 67.5012C128.017 67.8452 127.138 68.0171 126.183 68.0171C125.762 68.0553 125.323 68.0744 124.864 68.0744C124.406 68.0744 123.966 68.0935 123.546 68.1318H123.202C120.221 68.2082 117.126 68.2082 113.916 68.1318C113.152 68.1318 112.541 68.1127 112.082 68.0744C111.624 68.0744 111.203 68.0744 110.821 68.0744C110.477 68.0744 110.114 68.0744 109.732 68.0744C109.35 68.0744 108.853 68.0744 108.242 68.0744C107.363 68.1509 106.637 67.998 106.064 67.6159C105.643 67.3484 105.318 66.9854 105.089 66.5268C104.975 66.4122 104.917 66.2976 104.917 66.1829C104.879 66.1065 104.841 66.0492 104.803 66.011C104.764 65.9727 104.726 65.9154 104.688 65.839C104.612 65.6479 104.554 65.4569 104.516 65.2658C104.478 65.0365 104.459 64.8264 104.459 64.6353C104.42 64.4442 104.382 64.2532 104.344 64.0621C104.344 63.871 104.325 63.68 104.287 63.4889V62.5718C104.287 62.419 104.287 62.2661 104.287 62.1133C104.325 61.9604 104.344 61.8076 104.344 61.6547V57.1838L104.459 48.9299V41.3065C104.459 39.9308 104.459 38.708 104.459 37.638C104.497 36.5681 104.535 35.4026 104.573 34.1416V33.855C104.612 33.4346 104.631 33.0525 104.631 32.7086C104.669 32.3265 104.688 31.9443 104.688 31.5622C104.726 30.798 104.936 30.0528 105.318 29.3268C105.471 29.0211 105.624 28.7536 105.777 28.5243C105.968 28.295 106.216 28.104 106.522 27.9511C107.095 27.6072 107.688 27.4353 108.299 27.4353C108.605 27.4353 108.834 27.4544 108.987 27.4926V27.4353C109.675 27.4353 110.229 27.4353 110.649 27.4353C111.069 27.4353 111.471 27.4353 111.853 27.4353C112.273 27.4353 112.713 27.4353 113.171 27.4353C113.63 27.397 114.26 27.3779 115.063 27.3779C116.591 27.3397 118.043 27.3206 119.419 27.3206C120.795 27.3206 122.208 27.3397 123.661 27.3779H123.89C124.31 27.4161 124.75 27.4353 125.208 27.4353C125.667 27.4353 126.106 27.4544 126.527 27.4926C126.947 27.4926 127.367 27.5499 127.788 27.6645C128.208 27.741 128.628 27.8556 129.049 28.0084C129.698 28.1995 130.233 28.5243 130.653 28.9829C130.997 29.5178 131.169 30.0528 131.169 30.5878C131.169 30.8171 131.169 31.0463 131.169 31.2756C131.169 31.4667 131.131 31.6578 131.055 31.8488C131.017 32.2309 130.787 32.6322 130.367 33.0525C130.214 33.1289 130.042 33.2245 129.851 33.3391C129.698 33.4537 129.507 33.5493 129.278 33.6257C129.049 33.7021 128.8 33.7594 128.533 33.7977C128.303 33.7977 128.074 33.8168 127.845 33.855C127.539 33.9314 127.253 33.9696 126.985 33.9696C126.756 33.9696 126.488 33.9696 126.183 33.9696H123.603L112.139 34.0269V34.1989Z" fill="white"/>
<path d="M166.64 62.6291C167.06 63.3934 167.232 64.0621 167.156 64.6353C167.118 65.2085 167.06 65.6861 166.984 66.0683C166.869 66.4886 166.583 66.8516 166.124 67.1573C165.704 67.4248 165.226 67.635 164.691 67.7878C164.003 67.9789 163.43 68.0171 162.972 67.9025C162.398 67.7878 161.921 67.5968 161.539 67.3293C161.309 67.1382 161.099 66.9663 160.908 66.8134C160.717 66.6224 160.526 66.4504 160.335 66.2976C160.144 66.1065 159.972 65.9345 159.819 65.7817C159.666 65.6288 159.552 65.476 159.475 65.3231C159.399 65.1703 159.322 65.0747 159.246 65.0365C159.208 64.9601 159.169 64.9028 159.131 64.8646L151.508 53.8593L143.942 64.8646C143.903 64.9028 143.846 64.9601 143.77 65.0365C143.731 65.0747 143.655 65.1703 143.54 65.3231C143.464 65.476 143.349 65.6288 143.197 65.7817C143.082 65.9345 142.948 66.1065 142.795 66.2976C142.604 66.4504 142.394 66.6224 142.165 66.8134C141.935 66.9663 141.725 67.1382 141.534 67.3293C141.305 67.4821 141.057 67.5968 140.789 67.6732C140.56 67.7496 140.331 67.8261 140.101 67.9025C139.605 68.0171 139.07 67.9789 138.496 67.7878C137.312 67.5204 136.49 66.9472 136.032 66.0683C135.802 65.6097 135.707 65.1321 135.745 64.6353C135.783 64.1003 135.898 63.5653 136.089 63.0304C136.318 62.4954 136.567 61.9795 136.834 61.4827C137.14 60.986 137.445 60.5083 137.751 60.0498C137.904 59.8587 138.038 59.6868 138.152 59.5339C138.305 59.3811 138.458 59.2091 138.611 59.018C139.108 58.3684 139.585 57.7188 140.044 57.0692C140.503 56.3814 140.999 55.6553 141.534 54.8911L146.865 47.153L139.012 35.8038L138.324 34.8294C138.172 34.6001 138.019 34.39 137.866 34.1989C137.713 34.0078 137.56 33.7786 137.407 33.5111C137.254 33.32 137.102 33.1098 136.949 32.8806C136.796 32.6513 136.662 32.3838 136.548 32.0781C136.433 31.8488 136.318 31.6386 136.204 31.4476C136.127 31.2183 136.051 30.9508 135.974 30.6451C135.86 30.1866 135.821 29.7662 135.86 29.3841C135.974 28.8873 136.223 28.467 136.605 28.1231C136.758 27.932 136.93 27.7792 137.121 27.6645C137.35 27.5499 137.56 27.4353 137.751 27.3206C138.133 27.1678 138.477 27.0531 138.783 26.9767C139.089 26.9003 139.413 26.8621 139.757 26.8621C140.445 26.9003 141.095 27.1487 141.706 27.6072C142.47 28.104 143.158 28.7154 143.77 29.4414C144.037 29.8618 144.305 30.263 144.572 30.6451C144.84 30.989 145.126 31.352 145.432 31.7342L145.489 31.9635C146.445 33.2245 147.304 34.4473 148.069 35.6319C148.871 36.7782 149.75 38.0011 150.705 39.3003C150.858 39.4914 150.992 39.6824 151.107 39.8735C151.221 40.0645 151.355 40.2556 151.508 40.4467C151.661 40.2556 151.794 40.0645 151.909 39.8735C152.024 39.6824 152.157 39.4914 152.31 39.3003C153.189 38.0011 154.03 36.7782 154.832 35.6319C155.673 34.4473 156.552 33.2245 157.469 31.9635L157.584 31.7342C157.889 31.352 158.176 30.989 158.443 30.6451C158.749 30.263 159.036 29.8618 159.303 29.4414C159.915 28.7154 160.602 28.104 161.367 27.6072C161.94 27.1487 162.589 26.9003 163.315 26.8621C163.927 26.8621 164.577 27.0149 165.264 27.3206C165.723 27.5881 166.067 27.8556 166.296 28.1231C166.755 28.467 167.041 28.8873 167.156 29.3841C167.194 29.7662 167.156 30.1866 167.041 30.6451C166.965 30.9508 166.869 31.2183 166.755 31.4476C166.678 31.6386 166.544 31.8488 166.353 32.0781C166.124 32.6513 165.876 33.1289 165.608 33.5111C165.455 33.7786 165.303 34.0078 165.15 34.1989C164.997 34.39 164.863 34.6001 164.748 34.8294L164.061 35.8038L156.151 47.153L161.481 54.8911L164.577 59.2473C164.92 59.8205 165.264 60.3746 165.608 60.9096C165.952 61.4445 166.296 62.0177 166.64 62.6291Z" fill="white"/>
<path d="M173.57 61.8267L173.628 57.2985L173.685 48.8726C173.723 47.6498 173.742 46.3887 173.742 45.0895C173.742 43.7903 173.742 42.4528 173.742 41.0772C173.742 39.7015 173.742 38.4787 173.742 37.4088C173.742 36.3388 173.78 35.1351 173.857 33.7977V33.5684C173.895 33.1863 173.914 32.8041 173.914 32.422C173.952 32.0017 173.971 31.5813 173.971 31.161C174.01 30.4732 174.22 29.728 174.602 28.9255C174.869 28.3906 175.271 27.932 175.806 27.5499C176.417 27.2442 177.009 27.0913 177.583 27.0913C177.888 27.0913 178.156 27.1104 178.385 27.1487C178.653 27.1487 178.901 27.1678 179.13 27.206C179.627 27.2824 180.066 27.5117 180.449 27.8938C180.678 28.0849 180.888 28.3906 181.079 28.8109C181.155 29.0402 181.213 29.2695 181.251 29.4987C181.327 29.6898 181.385 29.9 181.423 30.1292C181.461 30.3967 181.48 30.6451 181.48 30.8744C181.518 31.1037 181.538 31.3329 181.538 31.5622C181.538 31.8297 181.518 32.0781 181.48 32.3074C181.48 32.4984 181.48 32.7086 181.48 32.9379V33.9123L181.136 63.6609V64.2341C181.136 64.3487 181.117 64.5016 181.079 64.6926C181.079 64.8455 181.06 65.0365 181.022 65.2658C180.945 65.4569 180.869 65.667 180.792 65.8963C180.754 66.0874 180.697 66.2975 180.62 66.5268C180.506 66.7179 180.372 66.909 180.219 67.1C180.105 67.2529 179.952 67.4057 179.761 67.5586C179.455 67.8643 178.958 68.0744 178.27 68.1891C177.239 68.4184 176.264 68.3228 175.347 67.9025C174.889 67.5968 174.564 67.2147 174.373 66.7561C174.258 66.6415 174.201 66.5268 174.201 66.4122C174.163 66.3358 174.124 66.2784 174.086 66.2402C174.048 66.202 174.01 66.1447 173.971 66.0683C173.895 65.8772 173.838 65.6861 173.799 65.4951C173.761 65.2658 173.742 65.0365 173.742 64.8073C173.704 64.6162 173.666 64.4251 173.628 64.2341C173.628 64.043 173.608 63.8519 173.57 63.6609C173.532 63.3552 173.532 63.0304 173.57 62.6864V61.8267Z" fill="white"/>
<path d="M214.626 29.0402C214.97 29.4987 215.18 30.0337 215.257 30.6451C215.257 30.8744 215.238 31.1037 215.2 31.3329C215.2 31.524 215.18 31.7151 215.142 31.9061C215.104 32.3265 214.856 32.7277 214.397 33.1098C214.13 33.3009 213.786 33.492 213.365 33.683C213.136 33.7594 212.888 33.8168 212.62 33.855C212.391 33.855 212.123 33.8741 211.818 33.9123C211.588 33.9887 211.34 34.0269 211.073 34.0269C210.805 34.0269 210.538 34.0269 210.27 34.0269H207.691L195.711 34.0843V34.2562L195.654 43.5992C195.959 43.5992 196.284 43.5992 196.628 43.5992C197.01 43.5992 197.469 43.5801 198.004 43.5419C199.532 43.5419 200.889 43.5419 202.073 43.5419C203.296 43.5419 204.634 43.561 206.086 43.5992H206.43C206.85 43.5992 207.27 43.6183 207.691 43.6565C208.149 43.6565 208.608 43.6565 209.066 43.6565C209.487 43.6947 209.907 43.7521 210.327 43.8285C210.748 43.8667 211.168 43.9622 211.588 44.1151C212.276 44.3444 212.773 44.7074 213.079 45.2041C213.499 45.7009 213.709 46.2168 213.709 46.7518C213.709 46.981 213.709 47.2103 213.709 47.4396C213.709 47.6307 213.671 47.8408 213.595 48.0701C213.556 48.3758 213.308 48.7579 212.849 49.2165C212.544 49.484 212.181 49.6559 211.76 49.7324C211.569 49.8088 211.34 49.8852 211.073 49.9616C210.843 49.9998 210.595 50.0381 210.327 50.0763C210.06 50.1145 209.792 50.1527 209.525 50.1909C209.296 50.1909 209.028 50.1909 208.722 50.1909H206.086L195.539 50.2482L195.367 63.5462V64.0048C195.367 64.1959 195.348 64.3869 195.31 64.578C195.31 64.7308 195.291 64.9028 195.252 65.0938C195.176 65.2849 195.1 65.4951 195.023 65.7244C194.985 65.9154 194.928 66.1065 194.851 66.2976C194.584 66.8325 194.335 67.1955 194.106 67.3866C193.686 67.6923 193.17 67.9025 192.558 68.0171C191.527 68.2464 190.552 68.1318 189.635 67.6732C189.444 67.5586 189.253 67.4248 189.062 67.272C188.909 67.0809 188.775 66.8516 188.661 66.5841C188.584 66.4313 188.546 66.3167 188.546 66.2402L188.374 65.8963C188.26 65.7052 188.183 65.5142 188.145 65.3231C188.107 65.0938 188.069 64.8837 188.03 64.6926C188.03 64.5016 188.011 64.3105 187.973 64.1194C187.973 63.9284 187.954 63.7373 187.916 63.5462C187.877 63.2405 187.877 62.9348 187.916 62.6291V61.712L187.973 57.2411L188.03 48.9872C188.069 47.7644 188.088 46.5225 188.088 45.2615C188.088 44.0004 188.088 42.7012 188.088 41.3638C188.049 39.9881 188.03 38.7653 188.03 37.6954C188.069 36.6254 188.126 35.4599 188.202 34.1989V33.9123C188.24 33.492 188.26 33.1098 188.26 32.7659C188.26 32.3838 188.298 32.0017 188.374 31.6195C188.451 30.7789 188.642 30.0337 188.947 29.3841C189.215 28.7345 189.597 28.2759 190.094 28.0084C190.667 27.6645 191.278 27.4926 191.928 27.4926C192.234 27.4926 192.482 27.5117 192.673 27.5499V27.4926C193.361 27.4926 193.915 27.4926 194.335 27.4926C194.756 27.4926 195.157 27.4926 195.539 27.4926C195.921 27.4926 196.342 27.4926 196.8 27.4926C197.259 27.4544 197.87 27.4353 198.634 27.4353C201.691 27.397 204.71 27.397 207.691 27.4353H207.977C208.398 27.4735 208.818 27.4926 209.238 27.4926C209.697 27.4926 210.155 27.5117 210.614 27.5499C211.034 27.5499 211.455 27.6072 211.875 27.7218C212.295 27.7983 212.716 27.9129 213.136 28.0658C213.786 28.2568 214.282 28.5816 214.626 29.0402Z" fill="white"/>
</g>
<g filter="url(#filter7_bd_512_154)">
<mask id="path-44-inside-2_512_154" fill="white">
<path fill-rule="evenodd" clip-rule="evenodd" d="M217.2 204.338C230.976 189.031 239.36 168.775 239.36 146.56C239.36 98.8426 200.677 60.16 152.96 60.16C105.243 60.16 66.5601 98.8426 66.5601 146.56C66.5601 194.277 105.243 232.96 152.96 232.96C171.245 232.96 188.203 227.28 202.166 217.588L232.289 247.711C236.194 251.616 242.526 251.616 246.431 247.711C250.336 243.806 250.336 237.474 246.431 233.569L217.2 204.338Z"/>
</mask>
<path fill-rule="evenodd" clip-rule="evenodd" d="M217.2 204.338C230.976 189.031 239.36 168.775 239.36 146.56C239.36 98.8426 200.677 60.16 152.96 60.16C105.243 60.16 66.5601 98.8426 66.5601 146.56C66.5601 194.277 105.243 232.96 152.96 232.96C171.245 232.96 188.203 227.28 202.166 217.588L232.289 247.711C236.194 251.616 242.526 251.616 246.431 247.711C250.336 243.806 250.336 237.474 246.431 233.569L217.2 204.338Z" fill="white" fill-opacity="0.65" shape-rendering="crispEdges"/>
<path d="M217.2 204.338L206.051 194.304L196.531 204.882L206.594 214.945L217.2 204.338ZM202.166 217.588L212.773 206.982L203.91 198.119L193.614 205.266L202.166 217.588ZM232.289 247.711L221.682 258.318L232.289 247.711ZM246.431 233.569L257.038 222.962L246.431 233.569ZM224.36 146.56C224.36 164.927 217.444 181.644 206.051 194.304L228.35 214.372C244.508 196.418 254.36 172.622 254.36 146.56H224.36ZM152.96 75.16C192.393 75.16 224.36 107.127 224.36 146.56H254.36C254.36 90.5584 208.962 45.16 152.96 45.16V75.16ZM81.5601 146.56C81.5601 107.127 113.527 75.16 152.96 75.16V45.16C96.9584 45.16 51.5601 90.5584 51.5601 146.56H81.5601ZM152.96 217.96C113.527 217.96 81.5601 185.993 81.5601 146.56H51.5601C51.5601 202.562 96.9584 247.96 152.96 247.96V217.96ZM193.614 205.266C182.081 213.271 168.09 217.96 152.96 217.96V247.96C174.399 247.96 194.325 241.29 210.719 229.911L193.614 205.266ZM242.896 237.104L212.773 206.982L191.56 228.195L221.682 258.318L242.896 237.104ZM235.825 237.104C237.777 235.152 240.943 235.152 242.896 237.104L221.682 258.318C231.445 268.081 247.275 268.081 257.038 258.318L235.825 237.104ZM235.825 244.176C233.872 242.223 233.872 239.057 235.825 237.104L257.038 258.318C266.801 248.555 266.801 232.725 257.038 222.962L235.825 244.176ZM206.594 214.945L235.825 244.176L257.038 222.962L227.807 193.731L206.594 214.945Z" fill="url(#paint40_linear_512_154)" mask="url(#path-44-inside-2_512_154)"/>
</g>
<g filter="url(#filter8_d_512_154)">
<path d="M104.754 168.863C99.8981 160.452 97.9531 150.674 99.2208 141.044C100.489 131.415 104.898 122.473 111.766 115.606" stroke="white" stroke-opacity="0.8" stroke-width="18" stroke-linecap="round" stroke-linejoin="round" shape-rendering="crispEdges"/>
</g>
</g>
<defs>
<filter id="filter0_b_512_154" x="-100" y="-100" width="453.44" height="453.44" filterUnits="userSpaceOnUse" color-interpolation-filters="sRGB">
<feFlood flood-opacity="0" result="BackgroundImageFix"/>
<feGaussianBlur in="BackgroundImageFix" stdDeviation="50"/>
<feComposite in2="SourceAlpha" operator="in" result="effect1_backgroundBlur_512_154"/>
<feBlend mode="normal" in="SourceGraphic" in2="effect1_backgroundBlur_512_154" result="shape"/>
</filter>
<filter id="filter1_d_512_154" x="-62.04" y="45.48" width="254.24" height="254.24" filterUnits="userSpaceOnUse" color-interpolation-filters="sRGB">
<feFlood flood-opacity="0" result="BackgroundImageFix"/>
<feColorMatrix in="SourceAlpha" type="matrix" values="0 0 0 0 0 0 0 0 0 0 0 0 0 0 0 0 0 0 127 0" result="hardAlpha"/>
<feOffset dx="3" dy="3"/>
<feGaussianBlur stdDeviation="5"/>
<feColorMatrix type="matrix" values="0 0 0 0 0 0 0 0 0 0 0 0 0 0 0 0 0 0 0.3 0"/>
<feBlend mode="normal" in2="BackgroundImageFix" result="effect1_dropShadow_512_154"/>
<feBlend mode="normal" in="SourceGraphic" in2="effect1_dropShadow_512_154" result="shape"/>
</filter>
<filter id="filter2_f_512_154" x="19.1752" y="139.595" width="85.8096" height="103.415" filterUnits="userSpaceOnUse" color-interpolation-filters="sRGB">
<feFlood flood-opacity="0" result="BackgroundImageFix"/>
<feBlend mode="normal" in="SourceGraphic" in2="BackgroundImageFix" result="shape"/>
<feGaussianBlur stdDeviation="0.25" result="effect1_foregroundBlur_512_154"/>
</filter>
<filter id="filter3_f_512_154" x="100.118" y="168.35" width="42.0186" height="87.4033" filterUnits="userSpaceOnUse" color-interpolation-filters="sRGB">
<feFlood flood-opacity="0" result="BackgroundImageFix"/>
<feBlend mode="normal" in="SourceGraphic" in2="BackgroundImageFix" result="shape"/>
<feGaussianBlur stdDeviation="0.5" result="effect1_foregroundBlur_512_154"/>
</filter>
<filter id="filter4_d_512_154" x="19.4252" y="130.538" width="89.7975" height="118.463" filterUnits="userSpaceOnUse" color-interpolation-filters="sRGB">
<feFlood flood-opacity="0" result="BackgroundImageFix"/>
<feColorMatrix in="SourceAlpha" type="matrix" values="0 0 0 0 0 0 0 0 0 0 0 0 0 0 0 0 0 0 127 0" result="hardAlpha"/>
<feOffset dx="0.5" dy="0.5"/>
<feGaussianBlur stdDeviation="0.375"/>
<feComposite in2="hardAlpha" operator="out"/>
<feColorMatrix type="matrix" values="0 0 0 0 0.768627 0 0 0 0 0.407843 0 0 0 0 0.219608 0 0 0 1 0"/>
<feBlend mode="normal" in2="BackgroundImageFix" result="effect1_dropShadow_512_154"/>
<feBlend mode="normal" in="SourceGraphic" in2="effect1_dropShadow_512_154" result="shape"/>
</filter>
<filter id="filter5_f_512_154" x="42.1436" y="170.989" width="1.5" height="71.0758" filterUnits="userSpaceOnUse" color-interpolation-filters="sRGB">
<feFlood flood-opacity="0" result="BackgroundImageFix"/>
<feBlend mode="normal" in="SourceGraphic" in2="BackgroundImageFix" result="shape"/>
<feGaussianBlur stdDeviation="0.25" result="effect1_foregroundBlur_512_154"/>
</filter>
<filter id="filter6_d_512_154" x="102.287" y="24.8621" width="114.97" height="45.4484" filterUnits="userSpaceOnUse" color-interpolation-filters="sRGB">
<feFlood flood-opacity="0" result="BackgroundImageFix"/>
<feColorMatrix in="SourceAlpha" type="matrix" values="0 0 0 0 0 0 0 0 0 0 0 0 0 0 0 0 0 0 127 0" result="hardAlpha"/>
<feOffset/>
<feGaussianBlur stdDeviation="1"/>
<feComposite in2="hardAlpha" operator="out"/>
<feColorMatrix type="matrix" values="0 0 0 0 0 0 0 0 0 0 0 0 0 0 0 0 0 0 0.5 0"/>
<feBlend mode="normal" in2="BackgroundImageFix" result="effect1_dropShadow_512_154"/>
<feBlend mode="normal" in="SourceGraphic" in2="effect1_dropShadow_512_154" result="shape"/>
</filter>
<filter id="filter7_bd_512_154" x="56.5601" y="50.16" width="202.8" height="210.48" filterUnits="userSpaceOnUse" color-interpolation-filters="sRGB">
<feFlood flood-opacity="0" result="BackgroundImageFix"/>
<feGaussianBlur in="BackgroundImageFix" stdDeviation="5"/>
<feComposite in2="SourceAlpha" operator="in" result="effect1_backgroundBlur_512_154"/>
<feColorMatrix in="SourceAlpha" type="matrix" values="0 0 0 0 0 0 0 0 0 0 0 0 0 0 0 0 0 0 127 0" result="hardAlpha"/>
<feOffset dx="1" dy="1"/>
<feGaussianBlur stdDeviation="0.5"/>
<feComposite in2="hardAlpha" operator="out"/>
<feColorMatrix type="matrix" values="0 0 0 0 0 0 0 0 0 0 0 0 0 0 0 0 0 0 0.25 0"/>
<feBlend mode="normal" in2="effect1_backgroundBlur_512_154" result="effect2_dropShadow_512_154"/>
<feBlend mode="normal" in="SourceGraphic" in2="effect2_dropShadow_512_154" result="shape"/>
</filter>
<filter id="filter8_d_512_154" x="86.8433" y="103.606" width="36.9225" height="77.2592" filterUnits="userSpaceOnUse" color-interpolation-filters="sRGB">
<feFlood flood-opacity="0" result="BackgroundImageFix"/>
<feColorMatrix in="SourceAlpha" type="matrix" values="0 0 0 0 0 0 0 0 0 0 0 0 0 0 0 0 0 0 127 0" result="hardAlpha"/>
<feOffset/>
<feGaussianBlur stdDeviation="1.5"/>
<feComposite in2="hardAlpha" operator="out"/>
<feColorMatrix type="matrix" values="0 0 0 0 0 0 0 0 0 0 0 0 0 0 0 0 0 0 0.1 0"/>
<feBlend mode="normal" in2="BackgroundImageFix" result="effect1_dropShadow_512_154"/>
<feBlend mode="normal" in="SourceGraphic" in2="effect1_dropShadow_512_154" result="shape"/>
</filter>
<linearGradient id="paint0_linear_512_154" x1="126.72" y1="0" x2="126.72" y2="253.44" gradientUnits="userSpaceOnUse">
<stop stop-color="#DEDBE5"/>
<stop offset="1" stop-color="#C9C3E8"/>
</linearGradient>
<radialGradient id="paint1_angular_512_154" cx="0" cy="0" r="1" gradientUnits="userSpaceOnUse" gradientTransform="translate(126.72 126.72) rotate(-117.249) scale(167.735)">
<stop offset="0.165225" stop-color="#FF6902"/>
<stop offset="0.465759" stop-color="#36045C"/>
<stop offset="0.799628" stop-color="#BFB6CC"/>
</radialGradient>
<linearGradient id="paint2_linear_512_154" x1="-8.32" y1="8.0677e-09" x2="263.68" y2="265.6" gradientUnits="userSpaceOnUse">
<stop stop-color="#9D94A6" stop-opacity="0"/>
<stop offset="1" stop-color="#9D94A6"/>
</linearGradient>
<linearGradient id="paint3_linear_512_154" x1="63.9283" y1="210.875" x2="63.9283" y2="270.282" gradientUnits="userSpaceOnUse">
<stop offset="0.0195839" stop-color="#52337C"/>
<stop offset="0.766091" stop-color="#342E47"/>
</linearGradient>
<linearGradient id="paint4_linear_512_154" x1="-12.3499" y1="219.615" x2="5.95005" y2="227.621" gradientUnits="userSpaceOnUse">
<stop stop-color="#242327"/>
<stop offset="1" stop-color="#26242B" stop-opacity="0"/>
</linearGradient>
<linearGradient id="paint5_linear_512_154" x1="63.9283" y1="232.891" x2="63.9283" y2="270.282" gradientUnits="userSpaceOnUse">
<stop offset="0.693778" stop-color="#27225A" stop-opacity="0"/>
<stop offset="1" stop-color="#27225A"/>
</linearGradient>
<linearGradient id="paint6_linear_512_154" x1="123.288" y1="241.536" x2="90.8703" y2="156.633" gradientUnits="userSpaceOnUse">
<stop stop-color="#553C7D"/>
<stop offset="1" stop-color="#553C7D" stop-opacity="0"/>
</linearGradient>
<linearGradient id="paint7_linear_512_154" x1="137.799" y1="272.101" x2="137.644" y2="256.355" gradientUnits="userSpaceOnUse">
<stop stop-color="#392680"/>
<stop offset="1" stop-color="#392680" stop-opacity="0"/>
</linearGradient>
<radialGradient id="paint8_radial_512_154" cx="0" cy="0" r="1" gradientUnits="userSpaceOnUse" gradientTransform="translate(69.0991 130.991) rotate(90) scale(29.6498 28.0945)">
<stop stop-color="#E9DAED"/>
<stop offset="1" stop-color="#B3ACB6"/>
</radialGradient>
<radialGradient id="paint9_radial_512_154" cx="0" cy="0" r="1" gradientUnits="userSpaceOnUse" gradientTransform="translate(75.2618 144.126) rotate(111.801) scale(12.9345 7.25028)">
<stop stop-color="#C9AFB2"/>
<stop offset="1" stop-color="#C9AFB2" stop-opacity="0"/>
</radialGradient>
<linearGradient id="paint10_linear_512_154" x1="40.546" y1="150.766" x2="105.072" y2="150.766" gradientUnits="userSpaceOnUse">
<stop stop-color="#FF804A"/>
<stop offset="0.832986" stop-color="#FF655E"/>
</linearGradient>
<radialGradient id="paint11_radial_512_154" cx="0" cy="0" r="1" gradientUnits="userSpaceOnUse" gradientTransform="translate(91.1894 191.617) rotate(-92.9357) scale(36.3886 21.0139)">
<stop offset="0.268293" stop-color="#CA2C4D"/>
<stop offset="1" stop-color="#CA2C4D" stop-opacity="0"/>
</radialGradient>
<radialGradient id="paint12_radial_512_154" cx="0" cy="0" r="1" gradientUnits="userSpaceOnUse" gradientTransform="translate(77.2126 130.788) rotate(90) scale(28.216 18.4734)">
<stop stop-color="#D74B32"/>
<stop offset="1" stop-color="#D74B32" stop-opacity="0"/>
</radialGradient>
<radialGradient id="paint13_radial_512_154" cx="0" cy="0" r="1" gradientUnits="userSpaceOnUse" gradientTransform="translate(59.5077 191.152) rotate(-90) scale(19.1023 11.3371)">
<stop offset="0.300813" stop-color="#C93B38"/>
<stop offset="1" stop-color="#C93B38" stop-opacity="0"/>
</radialGradient>
<radialGradient id="paint14_radial_512_154" cx="0" cy="0" r="1" gradientUnits="userSpaceOnUse" gradientTransform="translate(60.4395 138.659) rotate(90) scale(11.6477 7.76513)">
<stop stop-color="#FF8752"/>
<stop offset="1" stop-color="#FF8752" stop-opacity="0"/>
</radialGradient>
<radialGradient id="paint15_radial_512_154" cx="0" cy="0" r="1" gradientUnits="userSpaceOnUse" gradientTransform="translate(39.008 247.751) rotate(-90) scale(35.0123 10.5606)">
<stop stop-color="#E56751"/>
<stop offset="1" stop-color="#E56751" stop-opacity="0"/>
</radialGradient>
<radialGradient id="paint16_radial_512_154" cx="0" cy="0" r="1" gradientUnits="userSpaceOnUse" gradientTransform="translate(82.1404 77.3676) rotate(166.745) scale(27.2778 27.2778)">
<stop offset="0.190467" stop-color="#BBBABD"/>
<stop offset="1" stop-color="#919092"/>
</radialGradient>
<radialGradient id="paint17_radial_512_154" cx="0" cy="0" r="1" gradientUnits="userSpaceOnUse" gradientTransform="translate(77.4637 88.9691) rotate(-124.717) scale(9.28805 13.3545)">
<stop offset="0.315541" stop-color="#939294"/>
<stop offset="1" stop-color="#939294" stop-opacity="0"/>
</radialGradient>
<linearGradient id="paint18_linear_512_154" x1="96.421" y1="97.5854" x2="96.421" y2="126.503" gradientUnits="userSpaceOnUse">
<stop stop-color="#BFBEBF"/>
<stop offset="1" stop-color="#C0B1D7"/>
</linearGradient>
<radialGradient id="paint19_radial_512_154" cx="0" cy="0" r="1" gradientUnits="userSpaceOnUse" gradientTransform="translate(121.927 105.636) rotate(162.469) scale(18.5452 18.7831)">
<stop stop-color="#D8D6DA"/>
<stop offset="1" stop-color="#D8D6DA" stop-opacity="0"/>
</radialGradient>
<radialGradient id="paint20_radial_512_154" cx="0" cy="0" r="1" gradientUnits="userSpaceOnUse" gradientTransform="translate(97.5885 97.4211) rotate(11.3099) scale(6.2834 18.1442)">
<stop offset="0.278879" stop-color="#D0CFD2"/>
<stop offset="0.948805" stop-color="#D0CFD2" stop-opacity="0"/>
</radialGradient>
<linearGradient id="paint21_linear_512_154" x1="104.092" y1="124.873" x2="104.092" y2="120.489" gradientUnits="userSpaceOnUse">
<stop stop-color="#B7ABD1"/>
<stop offset="0.464702" stop-color="#B7ABD1" stop-opacity="0"/>
</linearGradient>
<radialGradient id="paint22_radial_512_154" cx="0" cy="0" r="1" gradientUnits="userSpaceOnUse" gradientTransform="translate(96.5638 91.6494) rotate(-155.432) scale(27.1465)">
<stop offset="0.190467" stop-color="#CAC8CD"/>
<stop offset="1" stop-color="#939294"/>
</radialGradient>
<radialGradient id="paint23_radial_512_154" cx="0" cy="0" r="1" gradientUnits="userSpaceOnUse" gradientTransform="translate(25.2494 121.935) rotate(-72.3988) scale(25.5269 45.5016)">
<stop stop-color="#AEA7CF"/>
<stop offset="1" stop-color="#A9A9AA"/>
</radialGradient>
<radialGradient id="paint24_radial_512_154" cx="0" cy="0" r="1" gradientUnits="userSpaceOnUse" gradientTransform="translate(26.7595 106.497) rotate(-146.824) scale(16.2526 17.2879)">
<stop stop-color="#B2AEB8"/>
<stop offset="1" stop-color="#B2AEB8" stop-opacity="0"/>
</radialGradient>
<linearGradient id="paint25_linear_512_154" x1="45.2177" y1="126.298" x2="37.4153" y2="122.523" gradientUnits="userSpaceOnUse">
<stop stop-color="#BAB2BD"/>
<stop offset="1" stop-color="#BAB2BD" stop-opacity="0"/>
</linearGradient>
<radialGradient id="paint26_radial_512_154" cx="0" cy="0" r="1" gradientUnits="userSpaceOnUse" gradientTransform="translate(55.8074 83.4562) rotate(141.238) scale(34.84)">
<stop offset="0.123342" stop-color="#B3B2B3"/>
<stop offset="1" stop-color="#9D9CA1"/>
</radialGradient>
<radialGradient id="paint27_radial_512_154" cx="0" cy="0" r="1" gradientUnits="userSpaceOnUse" gradientTransform="translate(54.8156 80.8325) rotate(115.083) scale(29.9365)">
<stop offset="0.45905" stop-color="#A59FB8" stop-opacity="0"/>
<stop offset="1" stop-color="#A59FB8"/>
</radialGradient>
<radialGradient id="paint28_radial_512_154" cx="0" cy="0" r="1" gradientUnits="userSpaceOnUse" gradientTransform="translate(50.9001 93.0017) rotate(-130.711) scale(6.4882 12.7411)">
<stop offset="0.275354" stop-color="#A2A1A2"/>
<stop offset="1" stop-color="#A2A1A2" stop-opacity="0"/>
</radialGradient>
<linearGradient id="paint29_linear_512_154" x1="88.0836" y1="97.0758" x2="84.0525" y2="122.024" gradientUnits="userSpaceOnUse">
<stop stop-color="#C7C5CB"/>
<stop offset="1" stop-color="#C2B0DB"/>
</linearGradient>
<radialGradient id="paint30_radial_512_154" cx="0" cy="0" r="1" gradientUnits="userSpaceOnUse" gradientTransform="translate(103.233 102.913) rotate(142.951) scale(17.7628 14.0771)">
<stop stop-color="#D1D0D3"/>
<stop offset="1" stop-color="#D1D0D3" stop-opacity="0"/>
</radialGradient>
<radialGradient id="paint31_radial_512_154" cx="0" cy="0" r="1" gradientUnits="userSpaceOnUse" gradientTransform="translate(79.1883 92.0722) rotate(59.3936) scale(11.4655 16.962)">
<stop stop-color="#B0B0B1"/>
<stop offset="1" stop-color="#B0B0B1" stop-opacity="0"/>
</radialGradient>
<radialGradient id="paint32_radial_512_154" cx="0" cy="0" r="1" gradientUnits="userSpaceOnUse" gradientTransform="translate(90.8586 97.4879) rotate(107.199) scale(28.0028 37.3261)">
<stop stop-color="#C0AAC5" stop-opacity="0"/>
<stop offset="0.717929" stop-color="#C0AAC5" stop-opacity="0"/>
<stop offset="0.966226" stop-color="#C0AAC5"/>
</radialGradient>
<radialGradient id="paint33_radial_512_154" cx="0" cy="0" r="1" gradientUnits="userSpaceOnUse" gradientTransform="translate(82.1236 103.675) rotate(12.8972) scale(10.0811 17.8842)">
<stop stop-color="#D0CED4"/>
<stop offset="1" stop-color="#C1BDCB" stop-opacity="0"/>
</radialGradient>
<linearGradient id="paint34_linear_512_154" x1="-nan" y1="-nan" x2="-nan" y2="-nan" gradientUnits="userSpaceOnUse">
<stop stop-color="#FF9A58" stop-opacity="0"/>
<stop offset="0.193237" stop-color="#FF9A58"/>
<stop offset="0.869565" stop-color="#FFA163"/>
<stop offset="1" stop-color="#FF9A58" stop-opacity="0"/>
</linearGradient>
<radialGradient id="paint35_radial_512_154" cx="0" cy="0" r="1" gradientUnits="userSpaceOnUse" gradientTransform="translate(77.7323 97.6997) rotate(172.157) scale(33.8153 34.3584)">
<stop offset="0.0892594" stop-color="#CFCDD4"/>
<stop offset="1" stop-color="#9E9EA0"/>
</radialGradient>
<radialGradient id="paint36_radial_512_154" cx="0" cy="0" r="1" gradientUnits="userSpaceOnUse" gradientTransform="translate(62.2315 126.827) rotate(-83.2918) scale(33.3152 70.6411)">
<stop offset="0.250302" stop-color="#BEB1DF"/>
<stop offset="0.920984" stop-color="#BEB1DF" stop-opacity="0"/>
</radialGradient>
<radialGradient id="paint37_radial_512_154" cx="0" cy="0" r="1" gradientUnits="userSpaceOnUse" gradientTransform="translate(55.9187 110.863) rotate(-17.941) scale(33.3781 36.6264)">
<stop offset="0.720703" stop-color="#D0CED4" stop-opacity="0"/>
<stop offset="0.907185" stop-color="#D0CED4"/>
</radialGradient>
<radialGradient id="paint38_radial_512_154" cx="0" cy="0" r="1" gradientUnits="userSpaceOnUse" gradientTransform="translate(64.8359 93.5754) rotate(94.2892) scale(36.4977 40.3221)">
<stop offset="0.694075" stop-color="#C0AAC5" stop-opacity="0"/>
<stop offset="0.966226" stop-color="#C0AAC5"/>
</radialGradient>
<linearGradient id="paint39_linear_512_154" x1="159.313" y1="1.82633" x2="159.313" y2="102.931" gradientUnits="userSpaceOnUse">
<stop stop-color="#FF7A00"/>
<stop offset="1" stop-color="#DF1400"/>
</linearGradient>
<linearGradient id="paint40_linear_512_154" x1="164.174" y1="60.16" x2="164.174" y2="263.075" gradientUnits="userSpaceOnUse">
<stop stop-color="#6A4C99"/>
<stop offset="1" stop-color="#352E49"/>
</linearGradient>
<clipPath id="clip0_512_154">
<rect width="256" height="256" fill="white"/>
</clipPath>
<clipPath id="clip1_512_154">
<path d="M0 40C0 17.9086 17.9086 0 40 0H213.44C235.531 0 253.44 17.9086 253.44 40V213.44C253.44 235.531 235.531 253.44 213.44 253.44H40C17.9086 253.44 0 235.531 0 213.44V40Z" fill="white"/>
</clipPath>
</defs>
</svg>
